<svg width="39" height="21" viewBox="0 0 39 21" fill="none" xmlns="http://www.w3.org/2000/svg">
<g clip-path="url(#clip0_211_2053)">
<path d="M38.2808 7.42682C38.2848 7.39779 38.2848 7.36845 38.2808 7.33943C38.2846 7.31578 38.2846 7.29166 38.2808 7.26796L37.9972 5.22663C37.9563 4.98241 37.8469 4.75415 37.6813 4.56737L37.6326 4.51177L37.5436 4.42439L32.6338 0.278202L32.7715 0.413241C32.6588 0.281069 32.5174 0.175349 32.3575 0.103869C32.1977 0.0323883 32.0235 -0.00303662 31.8479 0.000207473H30.3571C30.1147 -0.0045012 29.8778 0.0710586 29.6846 0.214669C29.4818 0.0719236 29.2376 -0.00324966 28.9879 0.000207473H27.4971C27.3016 -0.00290242 27.1087 0.0446692 26.938 0.13812C26.7673 0.23157 26.6248 0.367582 26.5249 0.532378C26.3709 0.767756 26.3131 1.05135 26.3628 1.32667L26.5492 2.61341C26.4257 2.54481 26.286 2.50921 26.1441 2.51017H18.9252C18.6662 2.51176 18.4132 2.58618 18.196 2.72462C17.9861 2.85347 17.8175 3.03797 17.7099 3.25679L17.1509 2.78816C16.9309 2.58857 16.6404 2.48039 16.3407 2.48634H5.01416C4.75424 2.49098 4.50009 2.56216 4.2769 2.69285C3.97156 2.86806 3.74778 3.15295 3.65304 3.48714L0.0557668 15.2823C-0.011447 15.4767 -0.018059 15.6863 0.0367777 15.8844C0.0916142 16.0824 0.205416 16.26 0.363645 16.3944C0.404874 16.4286 0.448165 16.4605 0.493279 16.4896C0.493279 16.4896 0.42035 16.442 0.37984 16.4023L5.28965 20.5564C5.49734 20.7439 5.76889 20.8487 6.05118 20.8503H17.4669C17.7276 20.8437 17.9819 20.7697 18.2042 20.6358C18.3299 20.5685 18.4423 20.4797 18.5363 20.3737L18.5769 20.3181L18.6417 20.2387L18.6903 20.1513L19.225 20.6041C19.4297 20.7841 19.6954 20.8831 19.9704 20.8821H31.4103C31.6708 20.8736 31.9246 20.7998 32.1476 20.6676C32.2705 20.5962 32.3823 20.5079 32.4798 20.4055L32.5203 20.3499L32.5851 20.2705C32.6196 20.2202 32.6495 20.1671 32.6742 20.1116C32.7007 20.0635 32.7224 20.0129 32.739 19.9607L36.0203 9.19015V9.09483C36.0244 9.05787 36.0244 9.02059 36.0203 8.98363V8.91216C36.0243 8.88846 36.0243 8.86434 36.0203 8.84064C36.024 8.79042 36.024 8.73999 36.0203 8.68971H37.0736C37.1652 8.69796 37.2574 8.69796 37.3491 8.68971H37.422C37.4813 8.67238 37.5384 8.64837 37.5922 8.61825H37.6732L37.819 8.50705L37.8838 8.45938L37.9972 8.31639V8.26878L38.0783 8.13373C38.0737 8.10747 38.0737 8.08058 38.0783 8.05432C38.074 8.04143 38.074 8.02749 38.0783 8.0146C38.0955 7.96803 38.109 7.92021 38.1188 7.87161C38.115 7.85594 38.115 7.8396 38.1188 7.82394C38.1148 7.80029 38.1148 7.77612 38.1188 7.75247C38.1188 7.75247 38.2808 7.44269 38.2808 7.42682Z" fill="black"/>
<path d="M16.6729 3.39186C16.7159 3.42999 16.746 3.48013 16.759 3.53552C16.7721 3.59091 16.7674 3.64888 16.7458 3.70163L13.1567 15.4889C13.1115 15.6176 13.019 15.7252 12.8974 15.7907C12.7985 15.8556 12.6839 15.8939 12.5652 15.9019H1.15767C1.06025 15.8973 0.967953 15.8578 0.898404 15.7907C0.857031 15.7532 0.827994 15.7044 0.815004 15.6507C0.802014 15.597 0.805672 15.5406 0.82549 15.4889L4.42276 3.70163C4.46421 3.57131 4.55376 3.46085 4.67392 3.39186C4.7745 3.33162 4.88849 3.29619 5.0061 3.2886H16.4136C16.5103 3.28951 16.603 3.32643 16.6729 3.39186ZM10.718 13.114L12.865 6.07655H6.85336L4.71442 13.114H10.718ZM27.5619 3.511C27.6009 3.55534 27.6495 3.5905 27.7042 3.61388C27.7589 3.63726 27.8183 3.64825 27.8779 3.64602H29.3606C29.4171 3.64657 29.4727 3.63299 29.5223 3.60659C29.5719 3.58018 29.6138 3.54181 29.6441 3.49511C29.6705 3.45863 29.6891 3.41733 29.6988 3.37366C29.7085 3.33001 29.7092 3.28487 29.7008 3.24094L29.4092 1.14402C29.3814 1.04697 29.3316 0.957352 29.2634 0.881899C29.2244 0.837556 29.1758 0.802391 29.1211 0.779013C29.0664 0.755636 29.007 0.744652 28.9474 0.746871H27.4647C27.4083 0.746333 27.3526 0.759906 27.303 0.786312C27.2534 0.812717 27.2114 0.851083 27.1812 0.897791C27.1244 1.00899 27.1001 1.08047 27.1244 1.14402L27.4242 3.24094C27.4396 3.34305 27.4879 3.43766 27.5619 3.511ZM32.2692 1.12813C32.2414 1.03108 32.1915 0.94146 32.1233 0.866013C32.0861 0.821832 32.0389 0.786677 31.9855 0.763258C31.9321 0.739844 31.8739 0.728797 31.8155 0.730985H30.3247C30.2692 0.729434 30.2143 0.742642 30.1658 0.769209C30.1173 0.795776 30.077 0.834722 30.0493 0.881899C29.9953 0.952366 29.972 1.04088 29.9844 1.12813L30.2842 3.22505C30.303 3.32608 30.3507 3.41976 30.4219 3.49511C30.4616 3.53859 30.5103 3.57316 30.5649 3.59647C30.6194 3.61977 30.6784 3.63126 30.7379 3.63013H32.2287C32.2841 3.63085 32.3386 3.6173 32.387 3.59081C32.4354 3.56432 32.4758 3.52585 32.5042 3.47923C32.5323 3.44369 32.552 3.40241 32.5619 3.35843C32.5717 3.31445 32.5713 3.26888 32.5608 3.22505L32.2692 1.12813ZM26.2575 4.30529L26.1117 3.27271H18.9253C18.8124 3.27881 18.7033 3.31447 18.6093 3.37597C18.5496 3.40787 18.4977 3.45209 18.4571 3.50557C18.4166 3.55905 18.3883 3.62052 18.3743 3.68574L17.7748 5.65556C17.7509 5.70479 17.7427 5.76003 17.7513 5.8139C17.7601 5.86778 17.7851 5.91779 17.8234 5.95742C17.8917 6.02037 17.9809 6.05708 18.0746 6.06068H26.8085L24.6615 13.0981H15.9518C15.8395 13.1006 15.7302 13.1336 15.6359 13.1934C15.5213 13.2647 15.4376 13.375 15.4009 13.5032L14.7933 15.473C14.7734 15.5236 14.7682 15.5785 14.7782 15.6317C14.7883 15.685 14.813 15.7345 14.8499 15.7748C14.9161 15.842 15.006 15.8818 15.1011 15.886H26.5411C26.6594 15.876 26.7734 15.8379 26.8732 15.7748C26.9929 15.7089 27.0826 15.6011 27.1244 15.473L30.4138 4.70243H26.7112C26.6525 4.70357 26.5942 4.69287 26.5398 4.67102C26.4855 4.64916 26.4363 4.61659 26.3953 4.57534C26.3283 4.50331 26.2809 4.4159 26.2575 4.32117V4.30529Z" fill="white"/>
</g>
<defs>
<clipPath id="clip0_211_2053">
<rect width="38.2838" height="20.8821" fill="white"/>
</clipPath>
</defs>
</svg>
