<svg width="148" height="145" viewBox="0 0 148 145" fill="none" xmlns="http://www.w3.org/2000/svg">
<path d="M125.657 144.608C125.657 144.656 101.696 144.697 72.1486 144.697C42.6011 144.697 18.6298 144.656 18.6298 144.608C18.6298 144.559 42.5873 144.518 72.1486 144.518C101.71 144.518 125.657 144.563 125.657 144.608Z" fill="#263238"/>
<path d="M102.31 102.366C96.9791 98.6423 95.7714 91.7308 95.9819 85.5162C96.0164 84.4811 95.9025 83.3838 96.396 82.4763C96.8894 81.5687 98.0419 80.9442 98.9701 81.379C99.7396 81.7413 100.074 82.6384 100.506 83.3803C101.081 84.3684 101.925 85.1735 102.938 85.7026C103.597 86.0476 104.415 86.2547 105.067 85.8958C105.964 85.4024 106.068 84.1705 106.061 83.1353C106.061 81.2099 106.05 79.2868 106.027 77.3659C105.965 76.3345 106.069 75.2998 106.337 74.3018C106.658 73.3218 107.372 72.4143 108.349 72.1383C109.325 71.8622 110.543 72.4316 110.764 73.4391C110.802 73.8659 110.813 74.2947 110.795 74.7228C110.823 75.1541 111.023 75.6268 111.427 75.7579C111.831 75.8891 112.251 75.5889 112.562 75.2852C113.625 74.25 114.349 72.9008 115.022 71.5689C115.695 70.237 116.354 68.8671 117.32 67.7318C118.287 66.5966 119.622 65.696 121.116 65.6097C122.61 65.5235 124.166 66.4413 124.539 67.8906C124.912 69.3398 124.066 70.8201 123.159 71.9968C121.789 73.7434 120.175 75.2832 118.366 76.5688C118.013 76.7617 117.731 77.0629 117.562 77.428C117.338 78.1181 117.99 78.8083 118.67 79.0257C119.439 79.281 120.274 79.2016 121.085 79.2982C121.896 79.3949 122.759 79.7468 123.066 80.506C123.487 81.5618 122.603 82.666 121.737 83.3907C119.998 84.8399 118.023 85.9802 115.899 86.7619C115.14 87.0379 114.343 87.2829 113.728 87.8143C113.114 88.3457 112.748 89.2739 113.118 90.002C113.487 90.7301 114.436 90.9613 115.233 90.8129C116.03 90.6645 116.737 90.2367 117.496 89.9503C118.915 89.4154 120.743 89.512 121.637 90.737C121.914 91.159 122.089 91.6394 122.149 92.1405C122.209 92.6416 122.152 93.1498 121.982 93.6251C121.637 94.5711 121.105 95.4382 120.419 96.1751C118.159 98.8753 115.223 100.927 111.91 102.121C108.621 103.259 105.575 103.57 102.307 102.372" fill="#4CAF4F"/>
<path d="M123.021 66.462C123.021 66.462 122.99 66.4965 122.921 66.5587L122.614 66.8312C122.344 67.0728 121.948 67.4248 121.447 67.8906C120.029 69.2077 118.711 70.63 117.507 72.1452C116.737 73.101 115.94 74.1845 115.091 75.3611C114.242 76.5378 113.366 77.8076 112.496 79.1568C111.569 80.5795 110.72 82.0517 109.953 83.5667C109.553 84.3568 109.201 85.1815 108.839 86.0235L107.769 88.5942C106.359 91.8322 105.131 95.1465 104.091 98.5216C103.253 101.283 102.675 104.117 102.365 106.986C102.165 108.922 102.132 110.872 102.269 112.814C102.324 113.504 102.376 114.032 102.424 114.391C102.445 114.563 102.459 114.701 102.472 114.801V114.943C102.458 114.898 102.447 114.852 102.441 114.805C102.424 114.705 102.403 114.57 102.376 114.398C102.314 114.053 102.248 113.508 102.186 112.817C102.02 110.872 102.031 108.915 102.22 106.972C102.511 104.091 103.076 101.244 103.908 98.4698C104.939 95.0853 106.164 91.7627 107.576 88.5183L108.673 85.9579C109.035 85.1194 109.391 84.2878 109.795 83.4942C110.567 81.9746 111.423 80.499 112.358 79.074C113.242 77.6937 114.132 76.4446 114.97 75.2783C115.809 74.112 116.62 73.0216 117.386 72.0693C118.603 70.558 119.938 69.1458 121.378 67.8457C121.889 67.3868 122.296 67.0417 122.572 66.8105L122.893 66.5517C122.932 66.5175 122.975 66.4874 123.021 66.462Z" fill="#263238"/>
<path d="M109.839 83.4873C109.791 83.3452 109.757 83.1983 109.739 83.0491C109.684 82.7627 109.622 82.359 109.55 81.8345C109.401 80.7993 109.249 79.3811 109.087 77.8111C108.925 76.2411 108.742 74.8194 108.59 73.7946C108.511 73.2839 108.442 72.8733 108.394 72.5869C108.356 72.4403 108.336 72.2897 108.335 72.1383C108.394 72.2765 108.437 72.4213 108.463 72.5696C108.539 72.8526 108.625 73.2598 108.721 73.7739C108.918 74.8091 109.111 76.2169 109.274 77.7904C109.436 79.3639 109.574 80.7441 109.681 81.8172C109.732 82.3003 109.777 82.7109 109.812 83.0388C109.839 83.1867 109.848 83.3372 109.839 83.4873Z" fill="#263238"/>
<path d="M123.117 81.0098C122.949 81.0464 122.778 81.0672 122.607 81.0719C122.262 81.103 121.772 81.1444 121.164 81.2134C119.95 81.3445 118.28 81.5861 116.447 81.9311C114.615 82.2762 112.969 82.6661 111.786 82.9663C111.195 83.1181 110.719 83.2562 110.405 83.3493C110.238 83.4089 110.064 83.4505 109.888 83.4735C110.047 83.3934 110.213 83.3275 110.385 83.2769C110.709 83.163 111.178 83.0043 111.765 82.8352C112.941 82.4901 114.587 82.0795 116.427 81.7275C117.985 81.4296 119.557 81.2108 121.137 81.0719C121.747 81.0202 122.241 80.9995 122.586 80.9926C122.763 80.9805 122.941 80.9863 123.117 81.0098Z" fill="#263238"/>
<path d="M104.077 98.2282C104.04 98.1783 104.01 98.1237 103.987 98.066L103.759 97.5864C103.563 97.1689 103.297 96.5512 102.98 95.7955C102.338 94.2773 101.52 92.1517 100.65 89.7915C99.7809 87.4313 98.9804 85.3057 98.3731 83.7702C98.0763 83.0249 97.8313 82.4141 97.6485 81.9586L97.4552 81.4652C97.4284 81.4083 97.4099 81.3479 97.4 81.2858C97.4368 81.3357 97.467 81.3902 97.4897 81.4479L97.7175 81.9276C97.9107 82.3451 98.1799 82.9628 98.4973 83.7184C99.1391 85.2367 99.9569 87.3623 100.826 89.7225C101.696 92.0827 102.497 94.2083 103.104 95.7438C103.401 96.4891 103.646 97.0999 103.825 97.5553C103.904 97.752 103.97 97.9004 104.022 98.0488C104.049 98.1057 104.067 98.1661 104.077 98.2282Z" fill="#263238"/>
<path d="M121.703 92.5452C121.647 92.5769 121.588 92.6012 121.527 92.6176L121.016 92.7902L119.128 93.4009C117.534 93.9185 115.333 94.6569 112.917 95.4713C110.502 96.2856 108.29 97.0102 106.686 97.4933C105.885 97.7383 105.233 97.9247 104.781 98.0489L104.26 98.1834C104.199 98.2027 104.137 98.2154 104.073 98.2214C104.129 98.1897 104.188 98.1653 104.249 98.1489L104.76 97.9764L106.648 97.3657C108.242 96.8481 110.443 96.1096 112.859 95.2953C115.274 94.481 117.483 93.7563 119.087 93.2732C119.891 93.0282 120.54 92.8419 120.995 92.7177L121.516 92.5831C121.577 92.5639 121.639 92.5512 121.703 92.5452Z" fill="#263238"/>
<path d="M114.512 8.84384L112.735 9.47875L111.972 7.1565C110.571 2.87431 106.106 0.600363 102.003 2.04616C97.9004 3.49196 95.7162 8.18823 97.1171 12.4704L97.8797 14.7927L96.0957 15.431C95.4155 15.6949 94.8631 16.2107 94.5533 16.8714C94.2436 17.532 94.2003 18.2866 94.4325 18.9783L99.3772 34.0884C99.4799 34.4308 99.6503 34.7491 99.8784 35.0244C100.106 35.2996 100.388 35.5262 100.705 35.6907C101.022 35.8552 101.369 35.9542 101.726 35.9818C102.082 36.0095 102.441 35.9652 102.78 35.8517L121.195 29.2645C121.885 29.0011 122.445 28.4807 122.758 27.8127C123.072 27.1447 123.114 26.3812 122.876 25.6828L117.928 10.5726C117.822 10.2311 117.649 9.9144 117.419 9.64127C117.189 9.36815 116.906 9.14423 116.587 8.98289C116.268 8.82154 115.92 8.72608 115.563 8.70219C115.207 8.6783 114.849 8.72648 114.512 8.84384ZM100.475 11.2593C100.097 10.1458 100.165 8.92941 100.664 7.86486C101.163 6.80031 102.055 5.97023 103.152 5.54852C103.694 5.3631 104.268 5.28874 104.839 5.32989C105.411 5.37103 105.968 5.52684 106.477 5.78802C106.987 6.04919 107.439 6.41038 107.806 6.85003C108.174 7.28968 108.448 7.79878 108.615 8.34696L109.374 10.6692L101.234 13.5815L100.475 11.2593ZM110.826 24.6683L112.089 28.5261C112.112 28.6034 112.105 28.6867 112.068 28.7587C112.032 28.8307 111.969 28.8858 111.893 28.9125L110.122 29.544C110.052 29.5635 109.977 29.555 109.912 29.5203C109.848 29.4856 109.8 29.4273 109.777 29.3577L108.504 25.5171C107.802 25.4789 107.128 25.2271 106.573 24.7954C106.018 24.3637 105.608 23.7728 105.399 23.1017C105.098 22.2145 105.153 21.2457 105.551 20.398C105.949 19.5502 106.66 18.8894 107.534 18.5538C107.966 18.4063 108.423 18.3472 108.878 18.3801C109.333 18.413 109.777 18.5371 110.183 18.7451C110.589 18.9531 110.949 19.2408 111.242 19.5909C111.534 19.941 111.753 20.3464 111.886 20.7829C112.108 21.4646 112.126 22.1962 111.938 22.8882C111.751 23.5801 111.366 24.2024 110.83 24.6786L110.826 24.6683Z" fill="#4CAF4F"/>
<path d="M112.655 9.43738C112.655 9.48569 109.36 10.7245 105.261 12.1979C101.161 13.6713 97.8176 14.8548 97.8004 14.8203C97.7831 14.7858 101.096 13.5367 105.198 12.0598C109.301 10.583 112.638 9.39253 112.655 9.43738Z" fill="#263238"/>
<path d="M116.568 10.0723C116.583 10.1022 116.596 10.1334 116.606 10.1654C116.634 10.2344 116.665 10.3242 116.706 10.4346C116.796 10.6865 116.92 11.035 117.075 11.4698L118.4 15.3275C118.953 16.9631 119.612 18.9023 120.343 21.0555C120.688 22.1356 121.095 23.2605 121.475 24.444C121.678 25.0539 121.766 25.6963 121.734 26.3384C121.704 26.6723 121.609 26.9971 121.454 27.2942C121.288 27.5903 121.067 27.8516 120.802 28.0637C120.269 28.4528 119.677 28.7545 119.049 28.9574L117.272 29.5958L113.908 30.8L108.211 32.829L104.363 34.1816L103.328 34.5267L103.052 34.6164C103.023 34.6295 102.991 34.6377 102.959 34.6405C102.959 34.6405 102.987 34.6405 103.045 34.5991L103.314 34.4922L104.35 34.1022L108.176 32.6944L113.863 30.624L117.22 29.4094L118.997 28.7676C119.608 28.573 120.182 28.2805 120.699 27.9015C120.945 27.7047 121.151 27.4622 121.306 27.1872C121.452 26.9125 121.54 26.6106 121.565 26.3004C121.596 25.6818 121.512 25.0627 121.316 24.4751C120.944 23.3019 120.55 22.1666 120.195 21.0866C119.477 18.93 118.814 16.9838 118.29 15.3482C117.766 13.7126 117.324 12.398 117.02 11.4732C116.875 11.0212 116.765 10.6692 116.675 10.4139L116.592 10.1378C116.582 10.1169 116.574 10.0949 116.568 10.0723Z" fill="#263238"/>
<path d="M106.851 5.31394C106.851 5.31394 106.668 5.22422 106.33 5.0862C105.848 4.901 105.338 4.79834 104.822 4.78255C104.057 4.75632 103.296 4.90009 102.593 5.20352C101.739 5.58135 101.008 6.19249 100.485 6.96678C99.9583 7.73886 99.6758 8.65127 99.674 9.58578C99.6812 10.3517 99.7973 11.1127 100.019 11.8459C100.198 12.4739 100.385 12.9743 100.509 13.3228C100.582 13.4998 100.642 13.682 100.688 13.868C100.59 13.7025 100.508 13.528 100.443 13.3469C100.302 13.0019 100.098 12.5119 99.8983 11.8804C99.6526 11.1395 99.5188 10.3661 99.5014 9.58578C99.4922 8.61596 99.7813 7.66675 100.33 6.86671C100.871 6.06414 101.631 5.4341 102.521 5.05169C103.245 4.7466 104.03 4.61202 104.815 4.65833C105.343 4.6852 105.861 4.80798 106.344 5.02064C106.473 5.08025 106.598 5.14946 106.717 5.22768C106.766 5.24924 106.811 5.27835 106.851 5.31394Z" fill="#263238"/>
<path d="M107.01 18.816C107.065 18.7827 107.123 18.7538 107.183 18.7298C107.355 18.6518 107.534 18.5883 107.717 18.54C108.008 18.4541 108.308 18.4032 108.611 18.3882C109.023 18.366 109.435 18.4282 109.822 18.571C110.706 18.8816 111.516 19.7822 111.917 20.9865C112.109 21.6327 112.109 22.3208 111.917 22.9671C111.704 23.6685 111.322 24.3071 110.806 24.827L110.826 24.7338C111.285 25.9933 111.786 27.3597 112.303 28.7848L112.334 28.8711L112.248 28.9021L111.458 29.1644L109.733 29.7406L109.646 29.7682L109.619 29.682C109.146 28.2534 108.628 26.9215 108.238 25.6137L108.314 25.6724C107.64 25.6163 106.997 25.3631 106.465 24.9443C105.984 24.5738 105.589 24.1027 105.309 23.5641C105.056 23.0864 104.93 22.5517 104.943 22.0113C104.959 21.459 105.097 20.9171 105.347 20.4243C105.597 19.9316 105.953 19.5002 106.389 19.1611C106.568 19.0153 106.77 18.8989 106.986 18.816C106.791 18.9317 106.602 19.0572 106.42 19.1921C105.941 19.5975 105.574 20.1191 105.354 20.707C105.165 21.1502 105.077 21.6298 105.095 22.1113C105.114 22.5927 105.238 23.0641 105.461 23.4916C105.736 24.0098 106.121 24.4619 106.589 24.8166C107.096 25.2147 107.71 25.4548 108.352 25.5067H108.411L108.428 25.5585C108.808 26.8421 109.329 28.1844 109.808 29.6199L109.695 29.5646L111.42 28.9884L112.207 28.7227L112.151 28.84C111.637 27.4149 111.14 26.045 110.685 24.7856V24.7338L110.726 24.6924C111.228 24.1941 111.602 23.5821 111.817 22.9084C112 22.2902 112 21.6323 111.817 21.0141C111.441 19.8547 110.664 18.9748 109.822 18.6642C109.45 18.5205 109.052 18.4536 108.652 18.4675C108.354 18.4743 108.058 18.5149 107.769 18.5883C107.255 18.716 107.013 18.8333 107.01 18.816Z" fill="#263238"/>
<path d="M96.3442 118.449L61.8761 118.29C59.8856 118.279 57.9808 117.479 56.5801 116.064C55.1794 114.65 54.3973 112.738 54.4056 110.747L54.7713 24.3405C54.7754 23.3544 54.9738 22.3787 55.3552 21.4692C55.7365 20.5598 56.2934 19.7344 56.9939 19.0403C57.6944 18.3462 58.5249 17.7969 59.4378 17.4239C60.3507 17.051 61.3282 16.8616 62.3144 16.8666L96.7789 17.0253C98.7694 17.0353 100.675 17.835 102.076 19.2486C103.477 20.6623 104.26 22.5743 104.253 24.5648L103.887 110.968C103.883 111.954 103.685 112.93 103.303 113.84C102.922 114.75 102.365 115.576 101.665 116.271C100.965 116.965 100.134 117.515 99.2212 117.889C98.3083 118.263 97.3307 118.453 96.3442 118.449Z" fill="#455A64"/>
<path d="M96.7272 19.9962H90.0468C89.8289 20.0002 89.6138 20.0472 89.414 20.1343C89.2142 20.2215 89.0335 20.3472 88.8822 20.5042C88.731 20.6612 88.6122 20.8465 88.5325 21.0494C88.4529 21.2524 88.414 21.469 88.4182 21.687V22.8982C88.4223 23.116 88.3834 23.3324 88.3037 23.5352C88.224 23.7379 88.1052 23.923 87.9539 24.0797C87.8026 24.2364 87.6219 24.3618 87.422 24.4486C87.2222 24.5354 87.0073 24.5819 86.7895 24.5855L73.7669 24.5268C73.3264 24.5151 72.9085 24.329 72.6051 24.0094C72.3016 23.6898 72.1375 23.2628 72.1486 22.8222V21.6111C72.1597 21.1711 71.996 20.7446 71.6933 20.4251C71.3906 20.1056 70.9736 19.9191 70.5337 19.9065H68.1838L62.3351 19.8789C60.9439 19.8706 59.6062 20.4139 58.6148 21.3898C57.6233 22.3657 57.059 23.6947 57.0453 25.0858L56.7003 109.425C56.6971 110.116 56.8299 110.8 57.091 111.438C57.3522 112.077 57.7366 112.658 58.2224 113.148C58.7081 113.639 59.2857 114.029 59.9221 114.296C60.5585 114.563 61.2412 114.702 61.9314 114.705L96.3269 114.864C97.0175 114.867 97.702 114.734 98.3412 114.472C98.9804 114.211 99.5619 113.826 100.052 113.34C100.543 112.854 100.933 112.276 101.2 111.64C101.467 111.003 101.607 110.32 101.61 109.629L101.955 25.2894C101.963 23.8944 101.417 22.5532 100.437 21.5606C99.4565 20.568 98.1222 20.0053 96.7272 19.9962Z" fill="white"/>
<path d="M92.0999 103.611L66.5241 103.501C66.2584 103.501 66.0444 103.211 66.0479 102.859L66.0755 96.1682C66.0755 95.8231 66.2929 95.5264 66.5586 95.5264L92.1344 95.6437C92.2817 95.6691 92.4134 95.7505 92.5021 95.8707C92.5908 95.9909 92.6297 96.1408 92.6106 96.2889L92.5865 102.973C92.5865 103.328 92.3656 103.615 92.0999 103.611Z" fill="#4CAF4F"/>
<path d="M74.3001 99.5306C74.1589 99.5306 74.0232 99.5079 73.8929 99.4627C73.7644 99.4156 73.6649 99.3559 73.5943 99.2835L73.673 99.1288C73.74 99.1939 73.8295 99.2491 73.9418 99.2944C74.0558 99.3378 74.1752 99.3595 74.3001 99.3595C74.4196 99.3595 74.5164 99.3451 74.5906 99.3161C74.6666 99.2853 74.7218 99.2446 74.7562 99.1939C74.7924 99.1433 74.8105 99.0872 74.8105 99.0256C74.8105 98.9514 74.7888 98.8917 74.7453 98.8465C74.7037 98.8012 74.6485 98.7659 74.5797 98.7406C74.511 98.7134 74.4349 98.6899 74.3517 98.67C74.2684 98.6501 74.1852 98.6293 74.1019 98.6076C74.0187 98.584 73.9418 98.5533 73.8712 98.5152C73.8024 98.4772 73.7463 98.4275 73.7029 98.3659C73.6612 98.3026 73.6404 98.2202 73.6404 98.1189C73.6404 98.0248 73.6649 97.9388 73.7137 97.861C73.7644 97.7814 73.8413 97.718 73.9445 97.671C74.0476 97.6221 74.1798 97.5977 74.3408 97.5977C74.4476 97.5977 74.5535 97.613 74.6585 97.6438C74.7634 97.6728 74.8539 97.7135 74.9299 97.766L74.8621 97.9261C74.7806 97.8718 74.6937 97.832 74.6014 97.8067C74.511 97.7814 74.4232 97.7687 74.3381 97.7687C74.2241 97.7687 74.13 97.7841 74.0558 97.8148C73.9816 97.8456 73.9264 97.8872 73.8902 97.9397C73.8558 97.9904 73.8386 98.0483 73.8386 98.1135C73.8386 98.1877 73.8594 98.2474 73.901 98.2926C73.9445 98.3379 74.0006 98.3732 74.0694 98.3985C74.1399 98.4239 74.2169 98.4465 74.3001 98.4664C74.3834 98.4863 74.4657 98.508 74.5472 98.5315C74.6304 98.5551 74.7064 98.5858 74.7752 98.6238C74.8458 98.66 74.9019 98.7089 74.9435 98.7704C74.9869 98.832 75.0087 98.9125 75.0087 99.0121C75.0087 99.1044 74.9833 99.1903 74.9326 99.27C74.882 99.3478 74.8041 99.4111 74.6992 99.46C74.596 99.507 74.463 99.5306 74.3001 99.5306ZM75.4464 99.5143V97.6139H75.6473V99.5143H75.4464ZM76.2656 99.5143V97.6139H76.4312L77.7424 99.2645H77.6555V97.6139H77.8537V99.5143H77.6881L76.3796 97.8637H76.4665V99.5143H76.2656ZM79.3074 99.5306C79.1626 99.5306 79.0287 99.507 78.9056 99.46C78.7844 99.4111 78.6785 99.3433 78.588 99.2564C78.4993 99.1695 78.4296 99.0673 78.379 98.9496C78.3301 98.832 78.3057 98.7035 78.3057 98.5641C78.3057 98.4248 78.3301 98.2963 78.379 98.1786C78.4296 98.061 78.5002 97.9587 78.5907 97.8718C78.6812 97.785 78.7871 97.718 78.9083 97.671C79.0314 97.6221 79.1653 97.5977 79.3101 97.5977C79.4549 97.5977 79.587 97.6203 79.7065 97.6655C79.8277 97.7108 79.9309 97.7795 80.016 97.8718L79.8911 97.9994C79.8114 97.9198 79.7237 97.8628 79.6277 97.8284C79.5318 97.794 79.4287 97.7768 79.3183 97.7768C79.2006 97.7768 79.092 97.7967 78.9925 97.8366C78.8948 97.8746 78.8088 97.9298 78.7346 98.0022C78.6622 98.0727 78.6052 98.156 78.5636 98.2519C78.5237 98.346 78.5038 98.4501 78.5038 98.5641C78.5038 98.6763 78.5237 98.7804 78.5636 98.8763C78.6052 98.9722 78.6622 99.0564 78.7346 99.1288C78.8088 99.1994 78.8948 99.2546 78.9925 99.2944C79.092 99.3324 79.1997 99.3514 79.3156 99.3514C79.4241 99.3514 79.5264 99.3351 79.6223 99.3025C79.7201 99.27 79.8096 99.2148 79.8911 99.1369L80.0051 99.289C79.9146 99.3686 79.8087 99.4292 79.6875 99.4708C79.5662 99.5107 79.4395 99.5306 79.3074 99.5306ZM79.8124 99.2645V98.5641H80.0051V99.289L79.8124 99.2645ZM82.0497 99.5306C81.8072 99.5306 81.6163 99.4609 81.4769 99.3215C81.3376 99.1822 81.2679 98.9759 81.2679 98.7026V97.6139H81.4688V98.6944C81.4688 98.9188 81.5195 99.0844 81.6208 99.1912C81.7222 99.298 81.8651 99.3514 82.0497 99.3514C82.2362 99.3514 82.38 99.298 82.4814 99.1912C82.5827 99.0844 82.6334 98.9188 82.6334 98.6944V97.6139H82.8289V98.7026C82.8289 98.9759 82.7592 99.1822 82.6198 99.3215C82.4823 99.4609 82.2923 99.5306 82.0497 99.5306ZM83.4343 99.5143V97.6139H84.1455C84.3066 97.6139 84.445 97.6402 84.5609 97.6927C84.6767 97.7434 84.7654 97.8176 84.8269 97.9153C84.8903 98.0112 84.9219 98.1279 84.9219 98.2655C84.9219 98.3994 84.8903 98.5152 84.8269 98.613C84.7654 98.7089 84.6767 98.7831 84.5609 98.8356C84.445 98.8881 84.3066 98.9143 84.1455 98.9143H83.5456L83.6351 98.8193V99.5143H83.4343ZM83.6351 98.8356L83.5456 98.7379H84.1401C84.3301 98.7379 84.474 98.6971 84.5717 98.6157C84.6713 98.5324 84.721 98.4157 84.721 98.2655C84.721 98.1135 84.6713 97.9958 84.5717 97.9126C84.474 97.8293 84.3301 97.7877 84.1401 97.7877H83.5456L83.6351 97.6927V98.8356Z" fill="#E8E8E3"/>
<path d="M71.6255 44.7888L62.7506 44.7485L62.7432 46.3772L71.6181 46.4175L71.6255 44.7888Z" fill="#4CAF4F"/>
<path opacity="0.1" d="M71.6255 44.7888L62.7506 44.7485L62.7432 46.3772L71.6181 46.4175L71.6255 44.7888Z" fill="black"/>
<path d="M97.6415 54.7886C97.7112 54.7816 97.7797 54.7653 97.8451 54.7403C97.9406 54.703 98.0236 54.6395 98.0847 54.5571C98.1457 54.4747 98.1823 54.3767 98.1902 54.2745C98.1902 53.7258 98.1902 52.9253 98.1902 51.897C98.1902 51.3829 98.1902 50.8066 98.1902 50.1717C98.1902 50.0164 98.1902 49.8543 98.1902 49.6921C98.2126 49.5347 98.1784 49.3745 98.0935 49.2401C98.046 49.1756 97.9842 49.123 97.913 49.0865C97.8417 49.05 97.763 49.0305 97.6829 49.0296H97.1446H92.1585L63.2977 48.9226C63.2238 48.9213 63.1507 48.9379 63.0847 48.971C63.0186 49.004 62.9615 49.0525 62.9181 49.1124C62.8348 49.2474 62.803 49.4079 62.8284 49.5644C62.8284 49.9095 62.8284 50.2545 62.8284 50.5996C62.8284 51.2897 62.8284 51.9798 62.8284 52.67C62.8284 53.015 62.8284 53.3601 62.8284 53.7051C62.8141 53.8658 62.8141 54.0275 62.8284 54.1882C62.8465 54.2571 62.8802 54.3209 62.9269 54.3748C62.9736 54.4286 63.0319 54.471 63.0976 54.4988C63.1656 54.5258 63.2384 54.5388 63.3115 54.5367H65.0679L72.7316 54.5781L85.7059 54.6575L94.4532 54.7265L96.8306 54.7541H97.4483C97.5898 54.7541 97.6588 54.7541 97.6588 54.7541H97.4483H96.8306H94.4532H85.7059L72.7316 54.7127L65.0679 54.6817H63.3115C63.2148 54.6856 63.1184 54.6691 63.0286 54.6333C62.9377 54.5946 62.8569 54.5356 62.7923 54.4608C62.7277 54.3861 62.6811 54.2975 62.6559 54.202C62.6359 54.1115 62.6289 54.0185 62.6352 53.926V53.6706C62.6352 53.3256 62.6352 52.9805 62.6352 52.6354C62.6352 51.9453 62.6352 51.2552 62.6352 50.5651C62.6352 50.22 62.6352 49.875 62.6352 49.5299C62.6286 49.438 62.6286 49.3458 62.6352 49.2539C62.6481 49.1524 62.6874 49.056 62.7491 48.9744C62.8086 48.8911 62.8874 48.8234 62.9787 48.7771C63.07 48.7309 63.1712 48.7074 63.2735 48.7087L92.1344 48.8674L97.1205 48.9019H97.6588C97.7536 48.902 97.847 48.9249 97.9311 48.9688C98.0152 49.0126 98.0875 49.0761 98.1419 49.1538C98.2391 49.3038 98.2784 49.4841 98.2523 49.661C98.2523 49.8232 98.2523 49.9854 98.2523 50.1407C98.2523 50.7687 98.2523 51.3449 98.2523 51.866C98.2523 52.9011 98.2281 53.6948 98.2212 54.2469C98.2128 54.353 98.1742 54.4546 98.11 54.5395C98.0458 54.6245 97.9587 54.6894 97.8589 54.7265C97.7936 54.767 97.7183 54.7885 97.6415 54.7886Z" fill="#E0E0E0"/>
<path d="M81.648 50.6548H65.4164V52.1765H81.648V50.6548Z" fill="#4CAF4F"/>
<path opacity="0.2" d="M81.648 50.6548H65.4164V52.1765H81.648V50.6548Z" fill="white"/>
<path d="M71.5649 59.6467L62.6901 59.6064L62.6827 61.2351L71.5575 61.2754L71.5649 59.6467Z" fill="#4CAF4F"/>
<path opacity="0.1" d="M71.5649 59.6467L62.6901 59.6064L62.6827 61.2351L71.5575 61.2754L71.5649 59.6467Z" fill="black"/>
<path d="M97.4173 69.6469C97.487 69.6383 97.5561 69.6256 97.6243 69.6089C97.7207 69.5782 97.8094 69.5272 97.8844 69.4594C97.9594 69.3915 98.0189 69.3084 98.0591 69.2155C98.1134 69.0762 98.1347 68.9262 98.1212 68.7773C98.1212 68.6117 98.1212 68.4322 98.1212 68.2321C98.1212 67.8318 98.1212 67.3764 98.1212 66.8519V64.6607C98.1377 64.5021 98.1026 64.3424 98.0211 64.2053C97.936 64.0646 97.8021 63.9602 97.645 63.912C97.4731 63.8813 97.2981 63.872 97.124 63.8844H92.1586L63.3978 63.7774C63.2431 63.7778 63.0938 63.8343 62.9777 63.9365C62.8615 64.0387 62.7864 64.1795 62.7663 64.3329C62.7663 64.6607 62.7663 65.0231 62.7663 65.3681C62.7663 66.0582 62.7663 66.7484 62.7663 67.4385C62.7663 67.7835 62.7663 68.1286 62.7663 68.4737C62.7535 68.6349 62.7604 68.7972 62.787 68.9567C62.8301 69.0967 62.9188 69.2181 63.0389 69.3018C63.1664 69.3827 63.3161 69.4213 63.4668 69.4122H63.9465H64.9437L72.5799 69.4502L85.5092 69.5295L94.2255 69.5985L96.596 69.6262H94.2255H85.5092L72.5729 69.6123L64.9368 69.5847H63.4358C63.2491 69.5958 63.0639 69.5462 62.9078 69.4433C62.7508 69.3345 62.6362 69.1748 62.5835 68.9912C62.5525 68.8159 62.5433 68.6374 62.5559 68.4598C62.5559 68.1148 62.5559 67.7697 62.5559 67.4247C62.5559 66.7345 62.5559 66.0444 62.5559 65.3543C62.5559 65.0092 62.5559 64.6642 62.5559 64.3191C62.581 64.1218 62.6773 63.9405 62.8265 63.809C62.9758 63.6775 63.1678 63.6049 63.3668 63.6049L92.1275 63.7636L97.0929 63.8015C97.2778 63.7902 97.4634 63.803 97.645 63.8395C97.8243 63.8981 97.9755 64.021 98.0694 64.1846C98.1587 64.3365 98.1974 64.513 98.1798 64.6883C98.1798 64.8505 98.1798 65.0093 98.1798 65.168C98.1798 65.7925 98.1798 66.3653 98.1798 66.8933C98.1798 67.4212 98.1798 67.8663 98.1798 68.2735C98.1798 68.4702 98.1798 68.6531 98.1798 68.8222C98.1924 68.9765 98.1675 69.1315 98.1074 69.2742C98.0626 69.3694 97.9978 69.4538 97.9174 69.5217C97.837 69.5896 97.7429 69.6393 97.6416 69.6676C97.5662 69.6738 97.4902 69.6668 97.4173 69.6469Z" fill="#E0E0E0"/>
<path d="M71.498 75.1498L62.6232 75.1095L62.6158 76.7382L71.4906 76.7784L71.498 75.1498Z" fill="#4CAF4F"/>
<path opacity="0.1" d="M71.498 75.1498L62.6232 75.1095L62.6158 76.7382L71.4906 76.7784L71.498 75.1498Z" fill="black"/>
<path d="M97.3482 85.1435C97.418 85.1353 97.4871 85.1226 97.5553 85.1055C97.6512 85.075 97.7396 85.0245 97.8146 84.9573C97.8895 84.8901 97.9493 84.8077 97.9901 84.7156C98.0441 84.5763 98.0654 84.4263 98.0522 84.2774C98.0522 84.1083 98.0522 83.9323 98.0522 83.7288C98.0522 83.3319 98.0522 82.873 98.0522 82.3485V80.1574C98.0686 79.9987 98.0335 79.839 97.9521 79.7019C97.865 79.5638 97.7317 79.4611 97.576 79.4121C97.4043 79.3802 97.2292 79.3697 97.0549 79.381H92.0895L63.3288 79.274C63.1741 79.2744 63.0248 79.3309 62.9086 79.4331C62.7925 79.5353 62.7174 79.6762 62.6973 79.8296C62.6973 80.1746 62.6973 80.5197 62.6973 80.8648C62.6973 81.5549 62.6973 82.245 62.6973 82.9351C62.6973 83.2802 62.6973 83.6252 62.6973 83.9703C62.6845 84.1304 62.6914 84.2915 62.718 84.4499C62.7594 84.5907 62.8484 84.7127 62.9699 84.795C63.0966 84.8777 63.2469 84.9165 63.3978 84.9054H64.8988L72.535 84.9468L85.4644 85.0262L94.1806 85.0952L96.5512 85.1228H94.1806H85.4644L72.535 85.0848L64.8988 85.0538H63.3978C63.211 85.0664 63.0253 85.0166 62.8699 84.9123C62.7128 84.8035 62.5983 84.6439 62.5455 84.4603C62.5146 84.2849 62.5053 84.1065 62.5179 83.9289C62.5179 83.5838 62.5179 83.2388 62.5179 82.8937C62.5179 82.2036 62.5179 81.5135 62.5179 80.8233C62.5179 80.4783 62.5179 80.1332 62.5179 79.7709C62.5423 79.5739 62.6378 79.3926 62.7865 79.261C62.9352 79.1295 63.1268 79.0568 63.3253 79.0566L92.0861 79.2154L97.0515 79.2533C97.2364 79.242 97.422 79.2547 97.6036 79.2913C97.7829 79.3499 97.9341 79.4728 98.028 79.6363C98.1173 79.7883 98.1559 79.9647 98.1384 80.1401C98.1384 80.3023 98.1384 80.4645 98.1384 80.6198C98.1384 81.2443 98.1384 81.8171 98.1384 82.3451C98.1384 82.873 98.1384 83.3181 98.1384 83.7253C98.1384 83.922 98.1384 84.1049 98.1384 84.2739C98.1517 84.4283 98.1268 84.5835 98.066 84.726C98.0212 84.8212 97.9564 84.9056 97.876 84.9735C97.7956 85.0414 97.7015 85.0911 97.6001 85.1193C97.5192 85.147 97.4329 85.1553 97.3482 85.1435Z" fill="#E0E0E0"/>
<path d="M81.3015 65.9433L65.0701 65.8696L65.0632 67.3913L81.2946 67.465L81.3015 65.9433Z" fill="#4CAF4F"/>
<path opacity="0.2" d="M81.3015 65.9433L65.0701 65.8696L65.0632 67.3913L81.2946 67.465L81.3015 65.9433Z" fill="white"/>
<path d="M66.5379 82.3279C66.5277 82.4667 66.477 82.5995 66.3921 82.7097C66.3071 82.82 66.1917 82.9028 66.0601 82.9481C65.9285 82.9933 65.7865 82.999 65.6517 82.9643C65.5169 82.9295 65.3953 82.856 65.3019 82.7529C65.2086 82.6497 65.1475 82.5213 65.1264 82.3838C65.1053 82.2462 65.125 82.1055 65.1831 81.979C65.2412 81.8526 65.3352 81.746 65.4534 81.6724C65.5715 81.5989 65.7087 81.5616 65.8478 81.5653C66.04 81.576 66.2203 81.6621 66.3495 81.8049C66.4787 81.9476 66.5464 82.1356 66.5379 82.3279Z" fill="#4CAF4F"/>
<path d="M68.7358 82.3382C68.7426 82.4355 68.7293 82.5331 68.6968 82.625C68.6642 82.717 68.6131 82.8012 68.5466 82.8725C68.4801 82.9438 68.3996 83.0007 68.3102 83.0396C68.2207 83.0785 68.1243 83.0985 68.0267 83.0985C67.9292 83.0985 67.8327 83.0785 67.7433 83.0396C67.6539 83.0007 67.5734 82.9438 67.5069 82.8725C67.4404 82.8012 67.3893 82.717 67.3567 82.625C67.3242 82.5331 67.3109 82.4355 67.3176 82.3382C67.3109 82.2409 67.3242 82.1433 67.3567 82.0514C67.3893 81.9594 67.4404 81.8752 67.5069 81.8039C67.5734 81.7326 67.6539 81.6757 67.7433 81.6368C67.8327 81.5979 67.9292 81.5779 68.0267 81.5779C68.1243 81.5779 68.2207 81.5979 68.3102 81.6368C68.3996 81.6757 68.4801 81.7326 68.5466 81.8039C68.6131 81.8752 68.6642 81.9594 68.6968 82.0514C68.7293 82.1433 68.7426 82.2409 68.7358 82.3382Z" fill="#4CAF4F"/>
<path d="M70.9373 82.3485C70.9271 82.4873 70.8764 82.6201 70.7915 82.7303C70.7066 82.8406 70.5911 82.9235 70.4595 82.9687C70.3279 83.014 70.1859 83.0196 70.0511 82.9849C69.9164 82.9502 69.7947 82.8767 69.7014 82.7735C69.608 82.6703 69.5469 82.542 69.5258 82.4044C69.5047 82.2668 69.5244 82.1261 69.5825 81.9996C69.6407 81.8732 69.7346 81.7666 69.8528 81.693C69.9709 81.6195 70.1081 81.5823 70.2472 81.5859C70.4391 81.5975 70.6189 81.6839 70.7479 81.8264C70.8769 81.969 70.9449 82.1564 70.9373 82.3485Z" fill="#4CAF4F"/>
<path d="M73.1354 82.3589C73.1253 82.4977 73.0746 82.6305 72.9896 82.7407C72.9047 82.851 72.7893 82.9338 72.6576 82.9791C72.526 83.0243 72.384 83.03 72.2493 82.9953C72.1145 82.9606 71.9929 82.8871 71.8995 82.7839C71.8061 82.6807 71.7451 82.5523 71.7239 82.4148C71.7028 82.2772 71.7225 82.1365 71.7807 82.01C71.8388 81.8836 71.9327 81.777 72.0509 81.7034C72.1691 81.6299 72.3062 81.5926 72.4453 81.5963C72.6372 81.6079 72.817 81.6942 72.946 81.8368C73.075 81.9793 73.143 82.1668 73.1354 82.3589Z" fill="#4CAF4F"/>
<path d="M75.3334 82.3658C75.3239 82.5048 75.2738 82.638 75.1892 82.7487C75.1046 82.8594 74.9894 82.9429 74.8578 82.9886C74.7262 83.0344 74.584 83.0405 74.449 83.0061C74.314 82.9718 74.192 82.8985 74.0983 82.7954C74.0046 82.6923 73.9432 82.564 73.9219 82.4263C73.9005 82.2886 73.9201 82.1477 73.9781 82.021C74.0362 81.8944 74.1302 81.7876 74.2485 81.7139C74.3667 81.6403 74.504 81.603 74.6433 81.6067C74.8346 81.6183 75.0138 81.7041 75.1427 81.8459C75.2717 81.9877 75.3401 82.1743 75.3334 82.3658Z" fill="#4CAF4F"/>
<path d="M77.535 82.3762C77.5256 82.5145 77.4759 82.647 77.3922 82.7574C77.3084 82.8679 77.1942 82.9514 77.0636 82.9978C76.9329 83.0441 76.7916 83.0513 76.657 83.0184C76.5223 82.9855 76.4003 82.9139 76.3058 82.8125C76.2113 82.7111 76.1485 82.5843 76.1251 82.4476C76.1018 82.311 76.1189 82.1705 76.1744 82.0435C76.2298 81.9165 76.3212 81.8084 76.4373 81.7327C76.5533 81.6569 76.689 81.6167 76.8276 81.6171C77.022 81.6243 77.2056 81.7082 77.3381 81.8505C77.4707 81.9928 77.5415 82.1818 77.535 82.3762Z" fill="#4CAF4F"/>
<path d="M79.7329 82.3865C79.7397 82.4838 79.7264 82.5815 79.6938 82.6734C79.6613 82.7653 79.6102 82.8495 79.5436 82.9208C79.4771 82.9922 79.3967 83.049 79.3072 83.0879C79.2178 83.1268 79.1213 83.1469 79.0238 83.1469C78.9263 83.1469 78.8298 83.1268 78.7404 83.0879C78.651 83.049 78.5705 82.9922 78.504 82.9208C78.4375 82.8495 78.3863 82.7653 78.3538 82.6734C78.3212 82.5815 78.3079 82.4838 78.3147 82.3865C78.3079 82.2893 78.3212 82.1916 78.3538 82.0997C78.3863 82.0078 78.4375 81.9235 78.504 81.8522C78.5705 81.7809 78.651 81.7241 78.7404 81.6852C78.8298 81.6463 78.9263 81.6262 79.0238 81.6262C79.1213 81.6262 79.2178 81.6463 79.3072 81.6852C79.3967 81.7241 79.4771 81.7809 79.5436 81.8522C79.6102 81.9235 79.6613 82.0078 79.6938 82.0997C79.7264 82.1916 79.7397 82.2893 79.7329 82.3865Z" fill="#4CAF4F"/>
<path d="M81.931 82.3968C81.9216 82.5351 81.8719 82.6676 81.7882 82.7781C81.7044 82.8885 81.5902 82.972 81.4596 83.0184C81.3289 83.0648 81.1876 83.0719 81.053 83.039C80.9183 83.0061 80.7963 82.9345 80.7018 82.8331C80.6073 82.7317 80.5445 82.6049 80.5211 82.4683C80.4978 82.3316 80.5149 82.1912 80.5704 82.0641C80.6258 81.9371 80.7172 81.829 80.8333 81.7533C80.9493 81.6775 81.085 81.6373 81.2236 81.6377C81.418 81.6449 81.6016 81.7288 81.7341 81.8711C81.8667 82.0134 81.9375 82.2024 81.931 82.3968Z" fill="#4CAF4F"/>
<path d="M84.129 82.4072C84.1195 82.5462 84.0693 82.6794 83.9847 82.7901C83.9002 82.9008 83.7849 82.9842 83.6533 83.03C83.5217 83.0758 83.3796 83.0819 83.2446 83.0475C83.1095 83.0132 82.9876 82.9399 82.8938 82.8368C82.8001 82.7337 82.7388 82.6053 82.7174 82.4677C82.696 82.33 82.7156 82.1891 82.7737 82.0624C82.8317 81.9357 82.9257 81.829 83.044 81.7553C83.1623 81.6816 83.2996 81.6443 83.4389 81.6481C83.6301 81.6597 83.8094 81.7455 83.9383 81.8873C84.0672 82.0291 84.1356 82.2157 84.129 82.4072Z" fill="#4CAF4F"/>
<g opacity="0.2">
<path d="M66.5379 82.3279C66.5277 82.4667 66.477 82.5995 66.3921 82.7097C66.3071 82.82 66.1917 82.9028 66.0601 82.9481C65.9285 82.9933 65.7865 82.999 65.6517 82.9643C65.5169 82.9295 65.3953 82.856 65.3019 82.7529C65.2086 82.6497 65.1475 82.5213 65.1264 82.3838C65.1053 82.2462 65.125 82.1055 65.1831 81.979C65.2412 81.8526 65.3352 81.746 65.4534 81.6724C65.5715 81.5989 65.7087 81.5616 65.8478 81.5653C66.04 81.576 66.2203 81.6621 66.3495 81.8049C66.4787 81.9476 66.5464 82.1356 66.5379 82.3279Z" fill="white"/>
<path d="M68.7358 82.3382C68.7426 82.4355 68.7293 82.5331 68.6968 82.625C68.6642 82.717 68.6131 82.8012 68.5466 82.8725C68.4801 82.9438 68.3996 83.0007 68.3102 83.0396C68.2207 83.0785 68.1243 83.0985 68.0267 83.0985C67.9292 83.0985 67.8327 83.0785 67.7433 83.0396C67.6539 83.0007 67.5734 82.9438 67.5069 82.8725C67.4404 82.8012 67.3893 82.717 67.3567 82.625C67.3242 82.5331 67.3109 82.4355 67.3176 82.3382C67.3109 82.2409 67.3242 82.1433 67.3567 82.0514C67.3893 81.9594 67.4404 81.8752 67.5069 81.8039C67.5734 81.7326 67.6539 81.6757 67.7433 81.6368C67.8327 81.5979 67.9292 81.5779 68.0267 81.5779C68.1243 81.5779 68.2207 81.5979 68.3102 81.6368C68.3996 81.6757 68.4801 81.7326 68.5466 81.8039C68.6131 81.8752 68.6642 81.9594 68.6968 82.0514C68.7293 82.1433 68.7426 82.2409 68.7358 82.3382Z" fill="white"/>
<path d="M70.9374 82.3487C70.9273 82.4875 70.8766 82.6202 70.7916 82.7305C70.7067 82.8407 70.5913 82.9236 70.4596 82.9688C70.328 83.0141 70.186 83.0197 70.0513 82.985C69.9165 82.9503 69.7949 82.8768 69.7015 82.7736C69.6081 82.6704 69.5471 82.5421 69.5259 82.4045C69.5048 82.267 69.5245 82.1262 69.5827 81.9998C69.6408 81.8733 69.7348 81.7667 69.8529 81.6932C69.9711 81.6196 70.1082 81.5824 70.2473 81.5861C70.4392 81.5976 70.619 81.684 70.748 81.8265C70.877 81.9691 70.945 82.1565 70.9374 82.3487Z" fill="white"/>
<path d="M73.1354 82.3589C73.1253 82.4977 73.0746 82.6305 72.9896 82.7407C72.9047 82.851 72.7893 82.9338 72.6576 82.9791C72.526 83.0243 72.384 83.03 72.2493 82.9953C72.1145 82.9606 71.9929 82.8871 71.8995 82.7839C71.8061 82.6807 71.7451 82.5523 71.7239 82.4148C71.7028 82.2772 71.7225 82.1365 71.7807 82.01C71.8388 81.8836 71.9327 81.777 72.0509 81.7034C72.1691 81.6299 72.3062 81.5926 72.4453 81.5963C72.6372 81.6079 72.817 81.6942 72.946 81.8368C73.075 81.9793 73.143 82.1668 73.1354 82.3589Z" fill="white"/>
<path d="M75.3334 82.3658C75.3239 82.5048 75.2738 82.638 75.1892 82.7487C75.1046 82.8594 74.9894 82.9429 74.8578 82.9886C74.7262 83.0344 74.584 83.0405 74.449 83.0061C74.314 82.9718 74.192 82.8985 74.0983 82.7954C74.0046 82.6923 73.9432 82.564 73.9219 82.4263C73.9005 82.2886 73.9201 82.1477 73.9781 82.021C74.0362 81.8944 74.1302 81.7876 74.2485 81.7139C74.3667 81.6403 74.504 81.603 74.6433 81.6067C74.8346 81.6183 75.0138 81.7041 75.1427 81.8459C75.2717 81.9877 75.3401 82.1743 75.3334 82.3658Z" fill="white"/>
<path d="M77.5349 82.3762C77.5255 82.5145 77.4758 82.647 77.3921 82.7574C77.3083 82.8679 77.1941 82.9514 77.0635 82.9978C76.9328 83.0441 76.7915 83.0513 76.6569 83.0184C76.5222 82.9855 76.4001 82.9139 76.3057 82.8125C76.2112 82.7111 76.1484 82.5843 76.125 82.4476C76.1017 82.311 76.1188 82.1705 76.1742 82.0435C76.2297 81.9165 76.3211 81.8084 76.4371 81.7327C76.5532 81.6569 76.6889 81.6167 76.8275 81.6171C77.0219 81.6243 77.2054 81.7082 77.338 81.8505C77.4706 81.9928 77.5414 82.1818 77.5349 82.3762Z" fill="white"/>
<path d="M79.7329 82.3865C79.7397 82.4838 79.7264 82.5815 79.6938 82.6734C79.6613 82.7653 79.6102 82.8495 79.5436 82.9208C79.4771 82.9922 79.3967 83.049 79.3072 83.0879C79.2178 83.1268 79.1213 83.1469 79.0238 83.1469C78.9263 83.1469 78.8298 83.1268 78.7404 83.0879C78.651 83.049 78.5705 82.9922 78.504 82.9208C78.4375 82.8495 78.3863 82.7653 78.3538 82.6734C78.3212 82.5815 78.3079 82.4838 78.3147 82.3865C78.3079 82.2893 78.3212 82.1916 78.3538 82.0997C78.3863 82.0078 78.4375 81.9235 78.504 81.8522C78.5705 81.7809 78.651 81.7241 78.7404 81.6852C78.8298 81.6463 78.9263 81.6262 79.0238 81.6262C79.1213 81.6262 79.2178 81.6463 79.3072 81.6852C79.3967 81.7241 79.4771 81.7809 79.5436 81.8522C79.6102 81.9235 79.6613 82.0078 79.6938 82.0997C79.7264 82.1916 79.7397 82.2893 79.7329 82.3865Z" fill="white"/>
<path d="M81.931 82.3969C81.9216 82.5352 81.8719 82.6678 81.7882 82.7782C81.7044 82.8886 81.5902 82.9722 81.4596 83.0185C81.3289 83.0649 81.1876 83.072 81.053 83.0391C80.9183 83.0062 80.7963 82.9346 80.7018 82.8332C80.6073 82.7318 80.5445 82.605 80.5211 82.4684C80.4978 82.3317 80.5149 82.1913 80.5704 82.0642C80.6258 81.9372 80.7172 81.8292 80.8333 81.7534C80.9493 81.6776 81.085 81.6375 81.2236 81.6378C81.418 81.645 81.6016 81.7289 81.7341 81.8712C81.8667 82.0135 81.9375 82.2026 81.931 82.3969Z" fill="white"/>
<path d="M84.129 82.4072C84.1195 82.5462 84.0693 82.6794 83.9847 82.7901C83.9002 82.9008 83.7849 82.9842 83.6533 83.03C83.5217 83.0758 83.3796 83.0819 83.2446 83.0475C83.1095 83.0132 82.9876 82.9399 82.8938 82.8368C82.8001 82.7337 82.7388 82.6053 82.7174 82.4677C82.696 82.33 82.7156 82.1891 82.7737 82.0624C82.8317 81.9357 82.9257 81.829 83.044 81.7553C83.1623 81.6816 83.2996 81.6443 83.4389 81.6481C83.6301 81.6597 83.8094 81.7455 83.9383 81.8873C84.0672 82.0291 84.1356 82.2157 84.129 82.4072Z" fill="white"/>
</g>
<path d="M81.0063 32.5944C81.246 32.4888 81.4493 32.3151 81.5911 32.0949C81.7328 31.8746 81.8066 31.6175 81.8034 31.3556C81.8123 31.1854 81.7865 31.0151 81.7275 30.8552C81.6685 30.6952 81.5775 30.5489 81.4602 30.4253C81.3428 30.3016 81.2015 30.2031 81.0449 30.1358C80.8882 30.0685 80.7195 30.0338 80.5491 30.0338C80.3786 30.0338 80.2099 30.0685 80.0532 30.1358C79.8966 30.2031 79.7553 30.3016 79.6379 30.4253C79.5206 30.5489 79.4297 30.6952 79.3707 30.8552C79.3116 31.0151 79.2858 31.1854 79.2948 31.3556C79.2895 31.6202 79.3627 31.8803 79.5052 32.1032C79.6477 32.3262 79.853 32.5019 80.0953 32.6082C78.163 32.8981 78.2492 34.996 78.2492 34.996L82.8178 35.0167C82.8178 35.0167 82.9248 32.8808 81.0063 32.5944Z" fill="#4CAF4F"/>
<path opacity="0.1" d="M81.0063 32.5944C81.246 32.4888 81.4493 32.3151 81.5911 32.0949C81.7328 31.8746 81.8066 31.6175 81.8034 31.3556C81.8123 31.1854 81.7865 31.0151 81.7275 30.8552C81.6685 30.6952 81.5775 30.5489 81.4602 30.4253C81.3428 30.3016 81.2015 30.2031 81.0449 30.1358C80.8882 30.0685 80.7195 30.0338 80.5491 30.0338C80.3786 30.0338 80.2099 30.0685 80.0532 30.1358C79.8966 30.2031 79.7553 30.3016 79.6379 30.4253C79.5206 30.5489 79.4297 30.6952 79.3707 30.8552C79.3116 31.0151 79.2858 31.1854 79.2948 31.3556C79.2895 31.6202 79.3627 31.8803 79.5052 32.1032C79.6477 32.3262 79.853 32.5019 80.0953 32.6082C78.163 32.8981 78.2492 34.996 78.2492 34.996L82.8178 35.0167C82.8178 35.0167 82.9248 32.8808 81.0063 32.5944Z" fill="black"/>
<path d="M88.4301 36.3698L72.1469 36.2959L72.138 38.242L88.4212 38.3159L88.4301 36.3698Z" fill="#4CAF4F"/>
<path opacity="0.2" d="M88.4301 36.3698L72.1469 36.2959L72.138 38.242L88.4212 38.3159L88.4301 36.3698Z" fill="white"/>
<path d="M28.5675 46.4555H28.4053L27.936 46.49C27.6821 46.5052 27.4295 46.5387 27.1804 46.59C27.019 46.6127 26.8589 46.6438 26.7007 46.6832L26.1659 46.8316C25.2556 47.1109 24.3967 47.5362 23.6228 48.0911C22.6003 48.8332 21.7466 49.7834 21.1177 50.8791C20.748 51.5108 20.4538 52.1837 20.2412 52.8839C20.0178 53.645 19.8891 54.4308 19.8582 55.2234C19.8376 55.6398 19.8445 56.0571 19.8789 56.4726C19.8789 56.683 19.9376 56.8935 19.9652 57.1075C19.9884 57.3231 20.0288 57.5366 20.0859 57.7458C20.3962 59.1305 21.0258 60.4234 21.9244 61.5216C22.8231 62.6197 23.9659 63.4927 25.2618 64.0708C26.1997 64.4755 27.205 64.7013 28.2259 64.7367C29.2803 64.7947 30.3358 64.6435 31.3314 64.2916L31.6351 64.1777H31.6765L31.711 64.1985L36.0622 66.4068L35.9345 66.5173C35.4687 65.0749 35.0201 63.6774 34.5853 62.3351V62.2834L34.6233 62.2454C35.6788 61.1823 36.4624 59.8802 36.9076 58.4498C37.3108 57.142 37.4285 55.7628 37.2527 54.4057C37.0963 53.1995 36.7085 52.0349 36.1105 50.9758C35.5951 50.0659 34.9302 49.2494 34.1437 48.5603C33.4948 48.0149 32.7766 47.5578 32.0077 47.2008C31.426 46.9499 30.8202 46.7591 30.1996 46.6315L29.5095 46.5176L29.0092 46.4796L28.7055 46.4589H28.602C28.6364 46.4551 28.6711 46.4551 28.7055 46.4589H29.0126L29.513 46.4796L30.2031 46.5797C30.8313 46.698 31.4455 46.8819 32.0354 47.1283C32.8174 47.4811 33.5485 47.9372 34.2092 48.4844C35.0102 49.1704 35.6892 49.9871 36.2175 50.8998C36.8324 51.9703 37.2321 53.1507 37.3941 54.3746C37.5845 55.7527 37.4751 57.1558 37.0732 58.4877C36.6251 59.9479 35.8294 61.2777 34.7544 62.3627L34.7751 62.273C35.2099 63.6153 35.6619 65.0128 36.1312 66.4517L36.1968 66.6622L36.0001 66.5621L31.6489 64.3572H31.7248L31.4142 64.471C30.3994 64.8282 29.3244 64.9829 28.25 64.9265C27.2072 64.8868 26.1809 64.6528 25.2239 64.2364C23.3984 63.4546 21.8796 62.0958 20.9003 60.3683C20.4496 59.5704 20.1205 58.7098 19.9237 57.8148C19.8699 57.6002 19.8295 57.3824 19.803 57.1627C19.7754 56.9453 19.7305 56.7314 19.7202 56.5174C19.6268 55.2896 19.7565 54.0551 20.1032 52.8736C20.3211 52.1637 20.6235 51.4825 21.0038 50.8446C21.6477 49.7389 22.5193 48.7827 23.5607 48.0393C24.3473 47.4831 25.2206 47.061 26.1452 46.7902L26.6869 46.6522C26.8464 46.6152 27.0076 46.5864 27.17 46.5659C27.4218 46.5193 27.6767 46.4916 27.9326 46.4831L28.4053 46.4658C28.4591 46.4586 28.5133 46.4551 28.5675 46.4555Z" fill="#4CAF4F"/>
<path d="M30.5343 54.5022H29.896L28.5157 52.563V51.2897C28.5157 51.2897 27.5289 51.2276 27.6462 52.8943C27.7635 54.5609 27.6462 54.1365 27.6462 54.1365C27.6462 54.1365 25.5517 54.1365 25.3791 54.3263C25.2066 54.516 25.1963 56.5381 25.1721 57.6664C25.1589 57.9384 25.2369 58.2071 25.3938 58.4296C25.5508 58.6522 25.7776 58.8159 26.0382 58.8948C26.1113 58.9151 26.1867 58.9255 26.2625 58.9259C26.787 58.9259 29.4543 58.5015 29.4543 58.5015H30.555L30.5343 54.5022Z" fill="#4CAF4F"/>
<path d="M32.3597 54.1606L31.9664 58.5222H30.876V54.2504L32.3597 54.1606Z" fill="#4CAF4F"/>
<path d="M45.365 142.955V140.005L40.0753 139.967L40.0304 144.428L40.3582 144.452C41.8178 144.546 47.7839 144.684 48.7639 144.38C49.8542 144.042 45.365 142.955 45.365 142.955Z" fill="#4CAF4F"/>
<path d="M48.8882 144.104C48.8882 144.152 46.9075 144.194 44.4679 144.194C42.0284 144.194 40.0477 144.152 40.0477 144.104C40.0477 144.056 42.0284 144.014 44.4679 144.014C46.9075 144.014 48.8882 144.056 48.8882 144.104Z" fill="#263238"/>
<path d="M45.4582 143.559C45.4133 143.535 45.4582 143.379 45.5652 143.214C45.6721 143.048 45.8171 142.979 45.8516 143.014C45.8861 143.048 45.8136 143.179 45.7101 143.321C45.6066 143.462 45.5031 143.583 45.4582 143.559Z" fill="#263238"/>
<path d="M45.7964 143.752C45.7481 143.752 45.7722 143.559 45.8757 143.376C45.9793 143.193 46.1173 143.083 46.1552 143.11C46.1932 143.138 46.1311 143.293 46.0345 143.455C45.9378 143.617 45.8412 143.769 45.7964 143.752Z" fill="#263238"/>
<path d="M41.6419 144.09C41.6212 144.09 41.5418 144.028 41.4279 143.897C41.2889 143.728 41.1341 143.573 40.9655 143.434C40.7998 143.302 40.6024 143.215 40.3927 143.183C40.2306 143.162 40.127 143.183 40.1167 143.162C40.1063 143.141 40.2064 143.069 40.3962 143.055C40.6467 143.05 40.891 143.133 41.0863 143.29C41.2693 143.439 41.4237 143.62 41.5418 143.824C41.6212 143.976 41.6626 144.076 41.6419 144.09Z" fill="#263238"/>
<path d="M45.4755 143.003C45.4996 143.045 45.4099 143.148 45.2581 143.203C45.1063 143.259 44.9717 143.238 44.9648 143.203C44.9579 143.169 45.0649 143.096 45.196 143.048C45.3271 143 45.4479 142.962 45.4755 143.003Z" fill="#263238"/>
<path d="M45.3927 142.717C45.3927 142.768 45.2546 142.81 45.0752 142.813C44.8958 142.817 44.7543 142.775 44.7578 142.727C44.7612 142.679 44.9027 142.634 45.0752 142.63C45.2477 142.627 45.3858 142.668 45.3927 142.717Z" fill="#263238"/>
<path d="M58.391 142.955V140.005L53.1013 139.967L53.0564 144.383L53.3842 144.408C54.8438 144.501 60.8133 144.684 61.7899 144.38C62.8802 144.042 58.391 142.955 58.391 142.955Z" fill="#4CAF4F"/>
<path d="M61.9141 144.111C61.9141 144.159 59.9369 144.201 57.4939 144.201C55.0509 144.201 53.0771 144.159 53.0771 144.111C53.0771 144.063 55.0543 144.021 57.4939 144.021C59.9335 144.021 61.9141 144.063 61.9141 144.111Z" fill="#263238"/>
<path d="M58.4842 143.559C58.4428 143.535 58.4842 143.379 58.5912 143.214C58.6981 143.048 58.8431 142.979 58.8776 143.014C58.9121 143.048 58.8396 143.179 58.7361 143.321C58.6326 143.462 58.5291 143.583 58.4842 143.559Z" fill="#263238"/>
<path d="M58.8224 143.752C58.7776 143.752 58.7983 143.559 58.9052 143.376C59.0122 143.193 59.1468 143.083 59.1847 143.11C59.2227 143.138 59.1571 143.293 59.0605 143.455C58.9639 143.617 58.8707 143.769 58.8224 143.752Z" fill="#263238"/>
<path d="M54.6679 144.09C54.6472 144.09 54.5712 144.028 54.4539 143.897C54.3149 143.728 54.1601 143.573 53.9915 143.434C53.8258 143.302 53.6284 143.215 53.4187 143.183C53.26 143.162 53.153 143.183 53.1427 143.162C53.1323 143.141 53.2324 143.069 53.4222 143.055C53.6727 143.05 53.917 143.133 54.1123 143.29C54.2963 143.438 54.4508 143.619 54.5678 143.824C54.6472 143.976 54.6886 144.076 54.6679 144.09Z" fill="#263238"/>
<path d="M58.5015 143.003C58.5256 143.045 58.4359 143.148 58.2841 143.203C58.1323 143.259 57.9977 143.238 57.9908 143.203C57.9839 143.169 58.0909 143.096 58.222 143.048C58.3531 143 58.4739 142.962 58.5015 143.003Z" fill="#263238"/>
<path d="M58.4256 142.717C58.4256 142.768 58.2876 142.81 58.1081 142.813C57.9287 142.817 57.7907 142.775 57.7941 142.727C57.7976 142.679 57.9356 142.634 58.1081 142.63C58.2807 142.627 58.4256 142.668 58.4256 142.717Z" fill="#263238"/>
<path d="M77.88 55.3442C77.742 55.2027 77.4004 55.2717 77.4004 55.2717C77.4347 55.073 77.4347 54.87 77.4004 54.6713C77.3383 54.4781 76.9035 54.516 76.9035 54.516C76.8835 54.3533 76.8835 54.1887 76.9035 54.026C76.907 53.99 76.8992 53.9537 76.8813 53.9222C76.8634 53.8907 76.8362 53.8655 76.8035 53.85C76.5978 53.7662 76.3768 53.7262 76.1547 53.7327C75.8891 53.5429 76.9656 52.035 77.3659 51.5519C77.7662 51.0689 77.6937 50.6927 77.3383 50.6927C77.0933 50.6927 75.8373 52.142 75.4508 52.6285C75.0644 53.1151 74.0395 54.4677 74.005 53.3877C73.9705 52.3076 73.5357 51.4933 73.2631 51.3553C72.9905 51.2172 72.7007 51.5416 72.8491 51.8418C72.9794 52.1829 73.0608 52.5407 73.0906 52.9046C73.1281 53.1945 73.1153 53.4886 73.0527 53.7741C72.9383 54.3054 72.7825 54.8268 72.5868 55.3338H72.5592C72.5592 55.3338 65.03 62.5559 64.4848 63.07C63.9983 63.5324 54.2124 62.5214 52.249 62.3144C51.5818 62.2167 50.9081 62.1706 50.2338 62.1763C49.3815 62.2143 49.2297 62.3351 48.3809 62.3454C46.2372 62.3692 44.0984 62.5573 41.9835 62.9079C41.0258 63.0707 40.1312 63.4934 39.3974 64.1299C38.6636 64.7664 38.1186 65.5922 37.822 66.5172C35.8448 72.6938 31.366 87.314 30.5758 95.5264C29.9787 96.6092 29.4396 97.723 28.9609 98.8631C28.4054 100.374 28.5399 100.426 28.7263 100.461C29.23 100.554 29.8028 97.8417 30.0168 98.4973C30.2307 99.153 28.9298 101.731 29.4578 101.806C30.1479 101.903 30.6966 99.046 30.7621 98.8182C30.8277 98.5905 31.1693 98.663 31.1072 98.8769C31.0071 99.1806 30.0375 102.4 30.7138 102.503C31.0865 102.559 31.1279 101.879 31.1279 101.879C31.1279 101.879 31.818 98.7975 32.132 98.8597C32.446 98.9218 32.1113 100.74 31.9526 101.348C31.7938 101.955 32.0147 102.262 32.339 102.114C32.5599 102.01 33.0878 100.164 33.2327 99.5636C33.3777 98.9632 33.74 97.3 34.2265 98.2627C34.713 99.2254 35.4515 99.7844 35.7551 99.7982C35.8236 99.7903 35.8881 99.7621 35.9403 99.7173C35.9926 99.6724 36.0302 99.613 36.0484 99.5465C36.0666 99.4801 36.0645 99.4097 36.0424 99.3445C36.0202 99.2793 35.9791 99.2222 35.9242 99.1806C35.663 98.9255 35.4389 98.6352 35.2582 98.3179C35.0973 98.0708 34.9805 97.7976 34.9132 97.5105C34.7741 96.9381 34.6932 96.3531 34.6716 95.7645L34.6164 95.4194C35.3894 91.5927 37.615 80.361 40.8275 73.1872L42.1456 75.8994L42.7184 77.9076L39.2057 86.579L54.1882 86.3823L51.9522 77.7765L54.6679 68.8049C57.6043 68.8705 65.1439 68.9809 66.3999 68.4116C67.9803 67.7215 76.1547 57.3973 76.1547 57.3973C76.6876 56.9832 77.1979 56.5409 77.6834 56.0722C77.6834 56.0722 78.1802 55.6547 77.88 55.3442Z" fill="#FFBE9D"/>
<path d="M38.5467 80.1713C38.9815 78.6875 41.214 71.3515 41.214 71.3515C41.214 71.3515 42.3113 77.3314 42.0214 78.0526C41.7548 78.67 41.4398 79.2654 41.0794 79.8331C38.5467 83.6874 38.8779 85.6163 38.8779 85.6163L54.1813 85.1505C54.2159 83.0111 52.9495 78.0354 52.6872 77.2417C52.425 76.4481 53.298 73.8498 53.298 73.8498C53.298 73.8498 55.0233 72.0934 54.9612 71.1894C54.9284 70.3773 54.828 69.5693 54.661 68.7739L63.9776 69.119L63.6843 62.8044L50.3029 61.4656C49.837 62.7803 45.6239 62.135 45.6239 62.135C41.076 62.2868 40.793 63.1219 38.9021 64.5918C37.0112 66.0618 33.8815 78.6772 33.8815 78.6772L38.5467 80.1713Z" fill="#4CAF4F"/>
<path d="M47.5942 78.6771C47.329 78.7245 47.0589 78.7384 46.7902 78.7185C46.2899 78.7185 45.6032 78.684 44.8475 78.608C44.0918 78.5321 43.4086 78.4252 42.9221 78.3285C42.6538 78.294 42.3908 78.2268 42.1388 78.1284C42.4086 78.1285 42.6778 78.1539 42.9428 78.2043C43.4328 78.2664 44.1125 78.3527 44.8648 78.4286C45.617 78.5045 46.3002 78.5563 46.7936 78.5908C47.0626 78.5942 47.3307 78.6231 47.5942 78.6771Z" fill="#263238"/>
<path d="M48.6431 77.3762C48.3778 77.5062 48.0973 77.6024 47.8081 77.6626C46.4314 78.0244 45.0111 78.1928 43.588 78.163C43.2935 78.1725 42.999 78.1447 42.7115 78.0801C43.0022 78.0434 43.2951 78.0284 43.588 78.0353C44.1297 78.018 44.8751 77.9801 45.6963 77.8835C46.5176 77.7868 47.2491 77.6488 47.7667 77.5384C48.0542 77.4616 48.3472 77.4074 48.6431 77.3762Z" fill="#263238"/>
<path d="M53.7914 71.5724C53.7844 71.8355 53.7485 72.097 53.6844 72.3522C53.5947 72.8319 53.4567 73.4875 53.2807 74.2052C53.1047 74.9229 52.9356 75.5854 52.7838 76.034C52.7227 76.2908 52.6324 76.5397 52.5146 76.7759C52.5339 76.5136 52.5825 76.2544 52.6596 76.003C52.7907 75.4647 52.9391 74.8436 53.1047 74.1638C53.2703 73.484 53.4291 72.8629 53.5602 72.3246C53.6069 72.0655 53.6845 71.813 53.7914 71.5724Z" fill="#263238"/>
<path d="M38.7088 79.2913C37.9105 79.1681 37.1227 78.9847 36.3521 78.7427C35.5646 78.5586 34.7918 78.3164 34.0402 78.0181C34.8381 78.1433 35.6257 78.3267 36.3969 78.5667C37.1846 78.7502 37.9574 78.9924 38.7088 79.2913Z" fill="#263238"/>
<path d="M54.8265 68.698C54.6964 68.7204 54.5633 68.7204 54.4332 68.698C54.0727 68.661 53.7188 68.5763 53.3807 68.4461C52.8163 68.234 52.3024 67.9061 51.8721 67.4836C51.4419 67.0611 51.1048 66.5533 50.8825 65.9927C50.6368 65.3761 50.5319 64.7124 50.5754 64.05C50.5908 63.5037 50.7542 62.9718 51.0481 62.5111C51.2549 62.2007 51.5637 61.9724 51.9211 61.8658C52.0166 61.8394 52.1154 61.8267 52.2144 61.8278C52.2834 61.8278 52.3179 61.8278 52.3179 61.8278C52.3179 61.8278 52.173 61.8278 51.9418 61.921C51.614 62.0421 51.3359 62.2692 51.1516 62.5663C50.6824 63.3047 50.5512 64.6539 51.0516 65.9133C51.2844 66.5072 51.649 67.0405 52.1178 67.473C52.5019 67.8269 52.9444 68.1118 53.4256 68.315C53.8772 68.4934 54.347 68.6219 54.8265 68.698Z" fill="#263238"/>
<path d="M62.87 68.9947C62.7837 67.9366 62.756 66.8745 62.7872 65.8133C62.7601 64.7529 62.7924 63.692 62.8838 62.6353C62.9702 63.6922 62.9978 64.7532 62.9666 65.8133C62.9956 66.8747 62.9633 67.937 62.87 68.9947Z" fill="#263238"/>
<path d="M50.2131 61.852C50.251 61.0825 50.3304 60.2129 50.3304 60.2129C50.3304 60.2129 52.2351 60.0025 52.349 58.0356C52.4629 56.0688 52.349 51.5312 52.349 51.5312L48.8984 49.7645L45.0682 52.7769L45.6583 62.6111L49.171 62.8354C49.4395 62.8428 49.7 62.7435 49.8953 62.5591C50.0907 62.3748 50.205 62.1205 50.2131 61.852Z" fill="#FFBE9D"/>
<path d="M50.5547 56.4794C50.5547 56.4794 50.5547 56.5174 50.5237 56.5623C50.498 56.5948 50.4648 56.6206 50.4269 56.6374C50.3891 56.6543 50.3477 56.6616 50.3063 56.6589C50.0855 56.6589 49.8715 56.4035 49.7956 56.1068C49.7595 55.9629 49.7595 55.8124 49.7956 55.6686C49.8027 55.6058 49.8253 55.5457 49.8615 55.4939C49.8976 55.4421 49.9462 55.4001 50.0026 55.3718C50.0491 55.3526 50.1012 55.3526 50.1476 55.3718C50.182 55.3889 50.2099 55.4168 50.2269 55.4512C50.2511 55.5098 50.2269 55.5478 50.2269 55.5443C50.2269 55.5409 50.2269 55.5098 50.1924 55.4753C50.1744 55.4506 50.1479 55.4334 50.1179 55.427C50.088 55.4207 50.0568 55.4256 50.0303 55.4408C49.9879 55.4664 49.9528 55.5023 49.928 55.5451C49.9033 55.588 49.8898 55.6363 49.8888 55.6858C49.8597 55.8142 49.8597 55.9474 49.8888 56.0757C49.9578 56.3449 50.1441 56.5623 50.3098 56.583C50.3422 56.5874 50.3751 56.585 50.4066 56.5761C50.438 56.5672 50.4673 56.5519 50.4926 56.5312C50.534 56.5036 50.5478 56.476 50.5547 56.4794Z" fill="#EB996E"/>
<path d="M53.5327 50.4685C53.267 49.5644 52.3042 49.1158 51.4278 48.8674C50.0924 48.4878 48.6501 48.3222 47.3457 48.8018C46.0414 49.2815 44.4748 50.1234 44.4748 51.5623C43.7054 51.5002 43.2637 52.1731 42.96 53.0081C42.7659 53.5169 42.6496 54.052 42.615 54.5954C42.5183 56.4794 41.9904 59.0812 40.7689 60.4614C40.0788 61.2309 39.123 61.7623 38.7296 62.7216C38.3845 63.5532 38.564 64.54 38.2431 65.382C37.9567 66.1238 37.3252 66.6518 36.8628 67.2971C36.3917 68.0291 36.1145 68.8688 36.0572 69.7374C35.9998 70.606 36.1643 71.4749 36.535 72.2625C36.9084 73.0299 37.4342 73.7132 38.0802 74.2708C38.7262 74.8284 39.479 75.2487 40.2927 75.506C41.9045 75.9964 43.6233 76.0132 45.2443 75.5543C46.4609 75.2634 47.5958 74.7007 48.5638 73.9084C49.5542 73.0996 50.2345 71.9731 50.4892 70.72C50.7342 69.3122 50.3409 67.8802 50.0476 66.4793C49.1297 62.0521 49.3919 61.821 50.5513 57.7113C50.5789 57.6388 50.5927 57.5629 50.6135 57.4905C50.6342 57.418 50.6445 57.3835 50.6583 57.3283C50.6912 57.1658 50.7086 57.0006 50.7101 56.8348C50.5407 56.8978 50.3569 56.9111 50.1803 56.8732C50.0036 56.8353 49.8415 56.7478 49.7128 56.6209C49.5839 56.4856 49.4941 56.3179 49.4528 56.1357C49.4114 55.9534 49.4202 55.7634 49.4782 55.5857C49.5596 55.3914 49.6809 55.2164 49.8343 55.0719C49.9876 54.9275 50.1696 54.8169 50.3685 54.7472C50.7515 54.5885 51.1621 54.5057 51.5382 54.3297C52.3353 53.9501 52.8874 53.1634 53.2635 52.3387C53.5727 51.7671 53.6682 51.1041 53.5327 50.4685Z" fill="#263238"/>
<path d="M50.6928 56.5726C50.7657 56.6804 50.8259 56.7961 50.8722 56.9177C50.9757 57.1351 51.1137 57.4422 51.2656 57.7976L51.2932 57.8632H51.2207L50.8756 57.8942C50.6375 57.8942 50.4374 57.9391 50.2028 57.9356C50.1823 57.931 50.1634 57.9213 50.1477 57.9075C50.132 57.8936 50.1201 57.876 50.1131 57.8563C50.1028 57.8249 50.1028 57.791 50.1131 57.7596C50.121 57.7131 50.1314 57.6671 50.1441 57.6216L50.2062 57.3766C50.2374 57.2132 50.286 57.0536 50.3511 56.9004C50.3447 57.067 50.3204 57.2325 50.2787 57.3939L50.2304 57.6389C50.2131 57.7217 50.1821 57.8494 50.2304 57.839C50.4029 57.839 50.6479 57.801 50.8756 57.7872L51.2207 57.7562L51.1758 57.8321C51.0275 57.487 50.9032 57.1627 50.8308 56.9384C50.7672 56.8238 50.7207 56.7006 50.6928 56.5726Z" fill="#4CAF4F"/>
<path d="M38.8779 85.6162L54.1813 85.1504L60.841 111.147L59.616 140.967H51.5243L52.5147 111.782L46.5969 93.6837L47.5078 142.123L39.3299 142.244L38.4707 96.7133C38.4328 95.447 38.0187 92.5933 38.174 91.3373L38.8779 85.6162Z" fill="#263238"/>
<path d="M48.6328 94.0529C48.3823 94.0687 48.1308 94.0536 47.884 94.0081C47.4216 93.9529 46.7901 93.8563 46.0966 93.7182C45.403 93.5802 44.7819 93.4215 44.3333 93.2938C44.0935 93.2411 43.8616 93.1576 43.6432 93.0454C43.6432 92.9936 44.7681 93.2628 46.1483 93.5423C47.5286 93.8218 48.6397 94.0012 48.6328 94.0529Z" fill="#455A64"/>
<path d="M59.5332 139.332C59.5332 139.38 57.701 139.422 55.4408 139.422C53.1807 139.422 51.345 139.38 51.345 139.332C51.345 139.283 53.1772 139.242 55.4408 139.242C57.7044 139.242 59.5332 139.28 59.5332 139.332Z" fill="#455A64"/>
<path d="M47.4354 140.864C47.4354 140.916 45.6549 140.953 43.4603 140.953C41.2657 140.953 39.4886 140.916 39.4886 140.864C39.4886 140.812 41.2692 140.774 43.4603 140.774C45.6514 140.774 47.4354 140.815 47.4354 140.864Z" fill="#455A64"/>
<path d="M46.3796 140.74C46.3313 140.74 46.1173 130.157 45.9 117.103C45.6826 104.049 45.5549 93.4595 45.5998 93.4595C45.6446 93.4595 45.8655 104.039 46.0794 117.1C46.2933 130.16 46.4314 140.74 46.3796 140.74Z" fill="#455A64"/>
<path d="M58.4462 139.332C58.4424 139.285 58.4424 139.237 58.4462 139.19V138.776C58.4462 138.403 58.4738 137.869 58.4945 137.189C58.5428 135.809 58.6118 133.804 58.6981 131.347C58.8844 126.406 59.1467 119.594 59.4331 112.075C59.4331 112.003 59.4331 111.934 59.4331 111.872V111.896C57.6215 104.65 55.9825 98.0729 54.792 93.3145L53.4118 87.6866C53.2531 87.0275 53.1323 86.5134 53.046 86.1545C53.0046 85.9854 52.977 85.8543 52.9529 85.7542C52.9394 85.7093 52.9313 85.663 52.9287 85.6162C52.9466 85.6597 52.9605 85.7047 52.9701 85.7508C52.9977 85.8474 53.0322 85.9785 53.0805 86.1442C53.1737 86.4892 53.3083 87.0137 53.4808 87.6693C53.8259 89.0012 54.3124 90.9198 54.9197 93.2834C56.1205 98.0384 57.7768 104.598 59.6125 111.855V111.879C59.6125 111.941 59.6125 112.013 59.6125 112.082C59.3054 119.601 59.0259 126.409 58.8223 131.35C58.7154 133.811 58.6256 135.802 58.5635 137.189C58.529 137.879 58.5014 138.403 58.4842 138.776C58.4842 138.952 58.4635 139.09 58.46 139.19C58.4605 139.238 58.4559 139.285 58.4462 139.332Z" fill="#455A64"/>
<path d="M55.8066 111.265C55.2254 111.456 54.6267 111.589 54.0192 111.661C53.2739 111.789 52.639 111.879 52.3526 111.893V111.824C52.4457 111.851 52.494 111.868 52.494 111.882C52.494 111.896 52.4354 111.882 52.3388 111.882H52.1317L52.3388 111.82C52.6079 111.741 53.2428 111.61 53.9881 111.475C54.5859 111.345 55.195 111.275 55.8066 111.265Z" fill="#455A64"/>
<path d="M55.6651 112.255C55.1268 112.28 54.5875 112.255 54.0536 112.182C53.5146 112.171 52.9777 112.113 52.4491 112.006C53.5275 111.919 54.613 112.002 55.6651 112.255Z" fill="#455A64"/>
<path opacity="0.2" d="M38.8124 86.1649C38.9936 86.3976 39.2219 86.5895 39.4823 86.728C39.7427 86.8666 40.0295 86.9486 40.3237 86.9689C40.9401 87.0419 41.5635 87.0303 42.1767 86.9343C46.1276 86.4961 50.3132 86.0924 54.1813 85.1504C49.1745 85.4299 43.8848 85.3367 38.8779 85.6162L38.8262 86.0441" fill="black"/>
<g opacity="0.2">
<path d="M43.9709 93.2214L46.7935 104.174L46.5969 93.6838L43.9709 93.2214Z" fill="black"/>
</g>
</svg>
