<svg width="148" height="110" viewBox="0 0 148 110" fill="none" xmlns="http://www.w3.org/2000/svg">
<path d="M73.7066 109.84C105.277 109.84 130.87 108.346 130.87 106.503C130.87 104.66 105.277 103.166 73.7066 103.166C42.1358 103.166 16.5427 104.66 16.5427 106.503C16.5427 108.346 42.1358 109.84 73.7066 109.84Z" fill="#F5F5F5"/>
<path d="M102.968 31.968L100.043 30.7887C100.043 30.7887 96.1841 37.8262 95.0785 38.1829C93.5749 38.6665 90.4615 40.0109 88.6159 40.2467C88.3653 40.5415 87.9555 41.4585 87.9938 41.7916C90.4733 42.6201 95.9217 41.5204 97.0892 40.6536C99.7456 38.6871 102.968 31.968 102.968 31.968Z" fill="#E58A7B"/>
<path d="M103.867 30.3671C104.413 32.3808 101.459 36.4317 101.459 36.4317L97.5875 34.2618C97.5875 34.2618 98.3128 32.596 99.1973 30.9007C100.615 28.1618 103.245 28.0704 103.867 30.3671Z" fill="#4CAF4F"/>
<path opacity="0.2" d="M103.867 30.3671C104.413 32.3808 101.459 36.4317 101.459 36.4317L97.5875 34.2618C97.5875 34.2618 98.3128 32.596 99.1973 30.9007C100.615 28.1618 103.245 28.0704 103.867 30.3671Z" fill="black"/>
<path opacity="0.2" d="M99.1235 35.1285L100.648 35.9835L100.916 31.3046C100.029 31.9856 99.4036 34.0376 99.1235 35.1285Z" fill="black"/>
<path d="M101.32 28.8517C101.32 28.8517 98.3069 35.556 100.064 48.039H111.937C112.125 46.2169 111.5 37.325 113.762 28.7396C112.459 28.4851 111.141 28.3167 109.817 28.2355C108.137 28.1381 106.453 28.1381 104.772 28.2355C103.608 28.3538 102.454 28.5597 101.32 28.8517Z" fill="#4CAF4F"/>
<path opacity="0.2" d="M101.32 28.8517C101.32 28.8517 98.3069 35.556 100.064 48.039H111.937C112.125 46.2169 111.5 37.325 113.762 28.7396C112.459 28.4851 111.141 28.3167 109.817 28.2355C108.137 28.1381 106.453 28.1381 104.772 28.2355C103.608 28.3538 102.454 28.5597 101.32 28.8517Z" fill="black"/>
<path d="M98.5663 106.768C98.5486 107.087 103.051 107.343 108.62 107.343C114.189 107.343 118.724 107.087 118.741 106.768C118.759 106.45 114.26 106.196 108.688 106.196C103.115 106.196 98.587 106.453 98.5663 106.768Z" fill="#E8ECF1"/>
<path d="M106.491 98.4019L104.386 99.217L106.2 103.903L108.305 103.088L106.491 98.4019Z" fill="#E58A7B"/>
<path d="M115.881 104.501H113.661L112.848 99.3623H115.068L115.881 104.501Z" fill="#E58A7B"/>
<path d="M113.508 104.245H116.002C116.046 104.245 116.088 104.26 116.12 104.288C116.153 104.316 116.175 104.355 116.182 104.398L116.504 106.37C116.51 106.42 116.506 106.47 116.492 106.518C116.478 106.566 116.453 106.61 116.42 106.647C116.387 106.685 116.346 106.715 116.301 106.735C116.255 106.756 116.206 106.766 116.156 106.765C115.286 106.751 114.867 106.698 113.771 106.698C113.095 106.698 111.707 106.768 110.769 106.768C109.832 106.768 109.77 105.848 110.156 105.763C111.89 105.389 112.562 104.879 113.14 104.383C113.242 104.294 113.373 104.244 113.508 104.245Z" fill="#263238"/>
<path d="M106.138 103.484L108.496 102.794C108.538 102.782 108.583 102.785 108.623 102.802C108.664 102.819 108.697 102.85 108.717 102.888L109.602 104.657C109.622 104.702 109.633 104.751 109.632 104.8C109.632 104.85 109.621 104.898 109.6 104.943C109.579 104.988 109.548 105.027 109.511 105.059C109.473 105.09 109.428 105.113 109.381 105.126C108.523 105.362 107.948 105.506 106.875 105.819C106.135 106.034 105.38 106.385 104.649 106.618C104.142 106.78 102.95 106.786 102.334 106.786C101.423 106.786 101.22 105.825 101.612 105.781C102.6 105.672 102.732 105.722 103.278 105.447C104.17 105.057 104.979 104.499 105.66 103.802C105.788 103.656 105.953 103.546 106.138 103.484Z" fill="#263238"/>
<path d="M88.9874 40.2348L86.5462 39.2118L85.5409 41.9183C86.5415 42.0707 87.5593 42.0707 88.5599 41.9183L88.9874 40.2348Z" fill="#E58A7B"/>
<path d="M84.7301 39.1411L84.6653 40.9396L85.5409 41.9125L86.5463 39.206L84.7301 39.1411Z" fill="#E58A7B"/>
<path d="M106.78 98.7999L104.668 99.6154L105.603 102.038L107.716 101.223L106.78 98.7999Z" fill="#CF6F64"/>
<path d="M115.068 99.3623H112.848L113.269 102.013H115.489L115.068 99.3623Z" fill="#CF6F64"/>
<path opacity="0.2" d="M99.6866 44.6632C99.7309 45.1968 99.781 45.7423 99.8459 46.3024L108.673 43.4367C110.051 43.0282 111.249 42.1619 112.069 40.9808C112.105 40.1936 112.149 39.3652 112.217 38.5013C112.246 38.0827 112.282 37.6522 112.32 37.2159C112.358 36.7795 112.411 36.296 112.467 35.8302L99.6866 44.6632Z" fill="black"/>
<path d="M102.57 34.9929L102.275 34.9575C102.449 33.4834 103.549 32.3218 104.708 32.3513V32.6461C103.693 32.6254 102.726 33.6721 102.57 34.9929Z" fill="white"/>
<path d="M104.142 37.7141H104.091V37.4193C105.106 37.4576 106.058 36.3992 106.214 35.0813L106.509 35.1167C106.353 36.5584 105.288 37.7141 104.142 37.7141Z" fill="white"/>
<path d="M109.652 22.5542C109.236 24.1787 108.747 27.1535 109.817 28.2355C109.817 28.2355 109.068 29.8836 106.052 29.8836C103.295 29.8836 104.772 28.2355 104.772 28.2355C106.606 27.8051 106.639 26.4665 106.397 25.1988L109.652 22.5542Z" fill="#E58A7B"/>
<path d="M108.325 23.6333L106.4 25.1988C106.46 25.4902 106.494 25.7861 106.503 26.0833C107.066 26.6435 108.195 25.2254 108.31 24.5001C108.369 24.2146 108.374 23.9207 108.325 23.6333Z" fill="#CF6F64"/>
<path d="M103.089 22.5335C103.223 22.7657 103.403 22.9677 103.619 23.127C103.835 23.2863 104.081 23.3994 104.342 23.4593C105.05 23.6155 105.403 22.964 105.209 22.3094C105.035 21.7198 104.454 20.9267 103.735 21.0623C103.581 21.0941 103.436 21.1623 103.314 21.2612C103.192 21.3602 103.095 21.487 103.032 21.6311C102.968 21.7751 102.941 21.9322 102.951 22.0893C102.961 22.2463 103.008 22.3986 103.089 22.5335Z" fill="#CF6F64"/>
<path d="M104.259 17.3357C103.157 17.8399 102.768 22.221 104.153 22.8696C105.539 23.5182 106.347 16.3775 104.259 17.3357Z" fill="#263238"/>
<path d="M109.988 20.1101C109.723 22.3095 109.693 23.6038 108.514 24.73C108.148 25.1038 107.687 25.3692 107.18 25.4972C106.673 25.6251 106.141 25.6104 105.642 25.4549C105.143 25.2993 104.696 25.0089 104.352 24.6156C104.008 24.2224 103.779 23.7416 103.69 23.2264C103.334 21.2511 103.826 17.9873 106.031 17.1117C106.495 16.9073 107.004 16.8306 107.507 16.8895C108.01 16.9484 108.488 17.1407 108.892 17.4466C109.296 17.7525 109.61 18.1607 109.803 18.6291C109.995 19.0974 110.059 19.6087 109.988 20.1101Z" fill="#E58A7B"/>
<path d="M106.365 18.4738C107.998 18.0581 109.198 17.7751 108.767 19.1342C108.198 20.9504 107.514 22.7075 108.431 22.7871C108.991 22.8373 111.468 21.7877 111.153 20.7234C110.878 19.7976 112.037 19.544 112.243 19.0753C113.007 17.3771 110.822 17.6011 111.211 16.5693C111.601 15.5374 109.443 13.8745 108.263 14.703C106.344 16.0415 103.051 16.0209 104.781 13.8185C106.023 12.2471 103.808 12.5685 103.808 12.5685C103.808 12.5685 105.147 13.3615 102.894 14.588C100.512 15.897 102.697 19.4143 106.365 18.4738Z" fill="#263238"/>
<path d="M110.855 22.5335C110.532 23.0001 110.048 23.3301 109.495 23.4593C108.767 23.6155 108.487 22.964 108.761 22.3094C109.006 21.7198 109.678 20.9267 110.374 21.0623C111.07 21.1979 111.229 21.9556 110.855 22.5335Z" fill="#E58A7B"/>
<path d="M100.064 48.0389C100.064 48.0389 98.071 65.8759 97.9147 72.6451C97.7555 79.6856 104.669 101.653 104.669 101.653L108.207 100.179C108.207 100.179 104.08 80.1072 104.669 73.1935C105.294 65.6548 107.877 48.0507 107.877 48.0507L100.064 48.0389Z" fill="#4CAF4F"/>
<path opacity="0.2" d="M105.017 52.936C103.428 56.2322 104.498 62.7508 105.359 66.613C105.686 63.8859 106.076 60.9258 106.444 58.1869C106.409 53.9768 106.082 50.7248 105.017 52.936Z" fill="black"/>
<path d="M108.051 99.0115C108.069 99.0115 108.47 100.138 108.47 100.138L104.389 101.854L103.746 100.657L108.051 99.0115Z" fill="#4CAF4F"/>
<path d="M104.277 48.0389C104.277 48.0389 105.801 65.0032 106.81 71.3567C107.918 78.3176 112.264 101.5 112.264 101.5H116.33C116.33 101.5 113.894 78.8807 113.434 71.9877C112.933 64.5109 111.937 48.0389 111.937 48.0389H104.277Z" fill="#4CAF4F"/>
<path d="M116.391 100.441C116.409 100.441 116.527 101.576 116.527 101.576H112.058L111.739 100.273L116.391 100.441Z" fill="#4CAF4F"/>
<path opacity="0.2" d="M114.835 99.097C114.826 99.0971 114.817 99.0939 114.81 99.0879C114.803 99.082 114.798 99.0737 114.797 99.0646C114.773 98.8582 112.576 78.4267 112.164 72.2354C111.716 65.5192 110.813 50.6217 110.805 50.4713C110.804 50.4664 110.805 50.4615 110.806 50.4569C110.808 50.4522 110.811 50.448 110.814 50.4444C110.817 50.4408 110.821 50.4379 110.826 50.4359C110.83 50.434 110.835 50.433 110.84 50.433C110.85 50.433 110.859 50.4366 110.866 50.4432C110.873 50.4497 110.878 50.4587 110.878 50.4684C110.878 50.6187 111.789 65.5045 112.237 72.2324C112.65 78.4238 114.847 98.8405 114.867 99.0616C114.868 99.0665 114.868 99.0715 114.867 99.0763C114.865 99.0811 114.863 99.0856 114.86 99.0894C114.857 99.0933 114.853 99.0965 114.849 99.0989C114.845 99.1012 114.84 99.1025 114.835 99.1029V99.097Z" fill="black"/>
<path d="M106.615 20.7234C106.615 20.9032 106.503 21.0477 106.385 21.0477C106.267 21.0477 106.182 20.9032 106.193 20.7234C106.205 20.5435 106.306 20.399 106.423 20.399C106.541 20.399 106.627 20.5465 106.615 20.7234Z" fill="#263238"/>
<path d="M104.593 20.7234C104.593 20.9032 104.478 21.0477 104.363 21.0477C104.248 21.0477 104.159 20.9032 104.168 20.7234C104.177 20.5435 104.283 20.399 104.401 20.399C104.519 20.399 104.604 20.5465 104.593 20.7234Z" fill="#263238"/>
<path d="M105.229 20.8147C104.983 21.3639 104.666 21.8783 104.286 22.3448C104.581 22.6397 105.132 22.5041 105.132 22.5041L105.229 20.8147Z" fill="#DF5753"/>
<path d="M105.283 23.2559C105.276 23.2559 105.269 23.2545 105.263 23.2518C105.256 23.2491 105.251 23.2452 105.246 23.2402C105.241 23.2352 105.238 23.2293 105.235 23.2229C105.233 23.2165 105.232 23.2097 105.232 23.2028C105.233 23.1885 105.239 23.175 105.25 23.1651C105.26 23.1552 105.274 23.1497 105.288 23.1498C105.514 23.1513 105.737 23.1024 105.941 23.0064C106.145 22.9105 106.325 22.7701 106.468 22.5955C106.478 22.5866 106.491 22.5817 106.505 22.5817C106.518 22.5817 106.531 22.5866 106.541 22.5955C106.551 22.6054 106.556 22.6186 106.556 22.6323C106.556 22.6461 106.551 22.6593 106.541 22.6692C106.389 22.8548 106.196 23.0038 105.978 23.1053C105.761 23.2068 105.523 23.2583 105.283 23.2559Z" fill="#263238"/>
<path d="M106.975 20.1808C106.961 20.188 106.945 20.1918 106.929 20.1918C106.913 20.1918 106.898 20.188 106.883 20.1808C106.773 20.1095 106.648 20.0652 106.517 20.0513C106.386 20.0375 106.254 20.0546 106.132 20.1012C106.12 20.1072 106.107 20.1107 106.093 20.1116C106.08 20.1124 106.066 20.1106 106.054 20.1062C106.041 20.1018 106.03 20.0949 106.02 20.086C106.01 20.077 106.002 20.0662 105.996 20.054C105.985 20.0278 105.985 19.9983 105.995 19.9719C106.006 19.9455 106.026 19.9242 106.052 19.9125C106.206 19.8496 106.373 19.8247 106.539 19.8401C106.705 19.8555 106.864 19.9107 107.004 20.001C107.016 20.0086 107.025 20.0185 107.033 20.0299C107.04 20.0414 107.045 20.0542 107.048 20.0676C107.05 20.0811 107.05 20.0949 107.047 20.1082C107.044 20.1216 107.039 20.1342 107.031 20.1454C107.016 20.1623 106.996 20.1746 106.975 20.1808Z" fill="#263238"/>
<path d="M103.811 19.5911C103.796 19.5873 103.781 19.5792 103.77 19.5676C103.76 19.5579 103.752 19.5465 103.747 19.5338C103.742 19.5212 103.739 19.5076 103.739 19.4938C103.739 19.4801 103.742 19.4665 103.747 19.4539C103.752 19.4412 103.76 19.4297 103.77 19.4201C103.883 19.2934 104.024 19.1945 104.181 19.1311C104.339 19.0676 104.509 19.0415 104.678 19.0546C104.692 19.0566 104.705 19.0615 104.716 19.0688C104.728 19.0761 104.738 19.0858 104.746 19.0971C104.753 19.1084 104.759 19.1212 104.761 19.1347C104.764 19.1482 104.764 19.162 104.761 19.1754C104.754 19.2027 104.738 19.2268 104.715 19.2431C104.693 19.2594 104.665 19.2668 104.637 19.2639C104.503 19.2554 104.369 19.2776 104.245 19.3287C104.12 19.3798 104.01 19.4584 103.92 19.5587C103.907 19.5736 103.89 19.5846 103.87 19.5903C103.851 19.596 103.831 19.5963 103.811 19.5911Z" fill="#263238"/>
<path d="M114.903 31.6406L111.837 30.824C111.837 30.824 108.829 38.2271 107.765 38.7076C106.32 39.368 102.662 41.6559 101.105 42.7379C101.019 43.1064 101.087 44.0823 101.282 44.3506C103.935 43.8671 109.015 41.9124 110.076 40.9188C112.497 38.6516 114.903 31.6406 114.903 31.6406Z" fill="#E58A7B"/>
<path d="M112.762 104.634C112.613 104.646 112.464 104.605 112.341 104.519C112.303 104.485 112.274 104.441 112.258 104.392C112.242 104.344 112.239 104.292 112.249 104.242C112.251 104.21 112.261 104.18 112.279 104.154C112.297 104.128 112.321 104.108 112.349 104.094C112.597 103.968 113.29 104.407 113.37 104.457C113.378 104.462 113.385 104.47 113.389 104.48C113.393 104.49 113.393 104.5 113.39 104.51C113.388 104.52 113.383 104.53 113.375 104.537C113.368 104.545 113.359 104.551 113.349 104.554C113.157 104.601 112.96 104.628 112.762 104.634ZM112.467 104.174C112.445 104.169 112.422 104.169 112.4 104.174C112.388 104.18 112.379 104.189 112.373 104.2C112.366 104.211 112.363 104.223 112.364 104.236C112.356 104.27 112.358 104.306 112.368 104.34C112.378 104.373 112.397 104.403 112.423 104.427C112.538 104.531 112.827 104.542 113.207 104.469C112.981 104.32 112.726 104.219 112.459 104.174H112.467Z" fill="#4CAF4F"/>
<path d="M113.334 104.554C113.327 104.557 113.318 104.557 113.311 104.554C113.089 104.43 112.674 103.944 112.736 103.696C112.745 103.657 112.767 103.622 112.799 103.597C112.83 103.572 112.869 103.558 112.91 103.558C112.949 103.552 112.989 103.556 113.028 103.567C113.066 103.579 113.101 103.599 113.131 103.625C113.375 103.835 113.39 104.477 113.39 104.51C113.392 104.52 113.39 104.529 113.385 104.538C113.38 104.547 113.373 104.553 113.364 104.557C113.354 104.559 113.344 104.558 113.334 104.554ZM112.939 103.655H112.918C112.851 103.655 112.842 103.693 112.839 103.708C112.804 103.852 113.066 104.221 113.284 104.395C113.283 104.146 113.206 103.903 113.063 103.699C113.029 103.669 112.985 103.653 112.939 103.655Z" fill="#4CAF4F"/>
<path d="M104.935 104.265C104.754 104.328 104.558 104.328 104.377 104.265C104.336 104.243 104.302 104.211 104.276 104.172C104.251 104.133 104.236 104.088 104.233 104.041C104.229 104.012 104.233 103.982 104.244 103.955C104.255 103.928 104.272 103.904 104.295 103.885C104.531 103.673 105.495 103.885 105.604 103.926C105.614 103.929 105.623 103.935 105.63 103.944C105.636 103.952 105.64 103.963 105.639 103.973C105.64 103.984 105.637 103.995 105.631 104.005C105.625 104.014 105.617 104.022 105.607 104.026C105.39 104.124 105.165 104.204 104.935 104.265ZM104.454 103.914C104.42 103.921 104.389 103.936 104.363 103.959C104.353 103.966 104.346 103.975 104.342 103.986C104.338 103.997 104.337 104.009 104.339 104.021C104.341 104.051 104.351 104.081 104.367 104.108C104.384 104.134 104.406 104.156 104.433 104.171C104.59 104.253 104.952 104.189 105.421 103.991C105.105 103.911 104.778 103.885 104.454 103.914Z" fill="#4CAF4F"/>
<path d="M105.598 104.026H105.574C105.279 103.973 104.69 103.634 104.672 103.381C104.672 103.322 104.699 103.239 104.84 103.192C104.888 103.175 104.939 103.168 104.989 103.171C105.04 103.174 105.09 103.187 105.135 103.21C105.453 103.366 105.621 103.932 105.63 103.959C105.632 103.967 105.632 103.977 105.63 103.986C105.627 103.994 105.622 104.002 105.616 104.009C105.611 104.016 105.605 104.022 105.598 104.026ZM104.899 103.28H104.87C104.778 103.313 104.778 103.351 104.778 103.363C104.778 103.516 105.206 103.796 105.504 103.891C105.435 103.654 105.29 103.447 105.091 103.301C105.032 103.271 104.963 103.264 104.899 103.28Z" fill="#4CAF4F"/>
<path d="M101.355 42.564L98.2803 43.9791L97.9236 44.8636L99.0587 45.6272C99.0587 45.6272 101.181 45.3972 101.786 44.0322L101.355 42.564Z" fill="#E58A7B"/>
<path d="M101.485 44.4008C101.416 43.8099 101.221 43.2408 100.913 42.732L101.4 42.3665C101.766 42.9527 101.999 43.6117 102.084 44.2976L101.485 44.4008Z" fill="#263238"/>
<path d="M102.01 42.9827C102.075 43.0849 102.107 43.2047 102.101 43.3257C102.096 43.4468 102.053 43.5632 101.979 43.6591C101.905 43.7551 101.803 43.8259 101.688 43.862C101.572 43.898 101.448 43.8976 101.333 43.8607C101.217 43.8238 101.116 43.7523 101.043 43.6558C100.969 43.5593 100.928 43.4426 100.923 43.3215C100.918 43.2004 100.951 43.0809 101.017 42.9791C101.083 42.8773 101.178 42.7983 101.29 42.7527C101.416 42.6885 101.563 42.6766 101.697 42.7197C101.832 42.7628 101.944 42.8573 102.01 42.9827Z" fill="#263238"/>
<path d="M96.2018 45.1231L96.6116 45.5358L99.3712 44.3565L98.2803 43.9791L96.2018 45.1231Z" fill="#E58A7B"/>
<path opacity="0.2" d="M108.051 99.0115C108.069 99.0115 108.47 100.138 108.47 100.138L104.389 101.854L103.746 100.657L108.051 99.0115Z" fill="black"/>
<path opacity="0.2" d="M116.391 100.441C116.409 100.441 116.527 101.576 116.527 101.576H112.058L111.739 100.273L116.391 100.441Z" fill="black"/>
<path d="M115.702 30.7916C116.512 33.4067 113.343 36.9829 113.343 36.9829L108.965 35.1963C109.484 33.6848 110.082 32.2017 110.757 30.7533C112.102 27.8551 114.882 28.1529 115.702 30.7916Z" fill="#4CAF4F"/>
<path opacity="0.2" d="M115.702 30.7916C116.512 33.4067 113.343 36.9829 113.343 36.9829L108.965 35.1963C109.484 33.6848 110.082 32.2017 110.757 30.7533C112.102 27.8551 114.882 28.1529 115.702 30.7916Z" fill="black"/>
<path d="M72.197 4.59045H70.3131V4.89412H72.197V4.59045Z" fill="#4CAF4F"/>
<path d="M96.5846 16.6095L96.3566 21.6694L96.6599 21.6831L96.8879 16.6231L96.5846 16.6095Z" fill="#4CAF4F"/>
<path d="M95.9983 5.95251H61.2089L57.9717 78.3972H92.7612L95.9983 5.95251Z" fill="#4CAF4F"/>
<path opacity="0.56" d="M94.9606 6.94897H60.1711L56.934 79.3936H91.7234L94.9606 6.94897Z" fill="#FAFAFA"/>
<path opacity="0.07" d="M93.9228 7.94263H59.1333L55.8932 80.3873H90.6827L93.9228 7.94263Z" fill="#4CAF4F"/>
<path d="M89.9633 39.5391H60.2684L60.0208 45.0818H89.7156L89.9633 39.5391Z" fill="white"/>
<path d="M76.5989 35.4941H60.4483L60.3392 37.9736H76.4898L76.5989 35.4941Z" fill="#4CAF4F"/>
<path d="M89.2941 54.4985H59.5992L59.3516 60.0413H89.0464L89.2941 54.4985Z" fill="white"/>
<path opacity="0.47" d="M83.8486 67.527H63.88L63.5823 74.1694H83.5509L83.8486 67.527Z" fill="#4CAF4F"/>
<path d="M82.513 75.2013H62.5445C62.5358 75.2035 62.5266 75.2035 62.5179 75.2013C62.515 75.1927 62.515 75.1833 62.5179 75.1747L62.8128 68.5293C62.8127 68.5248 62.8137 68.5203 62.8155 68.5162C62.8173 68.5121 62.8199 68.5084 62.8233 68.5053C62.8266 68.5022 62.8305 68.4999 62.8348 68.4985C62.8391 68.497 62.8436 68.4965 62.8481 68.4969H82.8167C82.8204 68.4951 82.8244 68.4941 82.8285 68.4941C82.8326 68.4941 82.8366 68.4951 82.8403 68.4969C82.8424 68.5005 82.8435 68.5046 82.8435 68.5087C82.8435 68.5128 82.8424 68.5169 82.8403 68.5205L82.5514 75.1806C82.5478 75.1875 82.5423 75.1932 82.5354 75.1969C82.5286 75.2006 82.5208 75.2021 82.513 75.2013ZM62.5798 75.1305H82.4777L82.7725 68.5559H62.8747L62.5798 75.1305Z" fill="white"/>
<path d="M73.111 50.4535H59.779L59.6699 52.9359H72.999L73.111 50.4535Z" fill="#4CAF4F"/>
<path d="M83.4682 21.6343C83.392 23.2474 82.8184 24.7974 81.8261 26.0715C81.0915 27.0338 80.1462 27.8151 79.0627 28.3553C77.9792 28.8955 76.7864 29.1803 75.5758 29.1878C74.5974 29.1952 73.6279 29.0023 72.727 28.6209C71.826 28.2395 71.0127 27.6777 70.3371 26.97C69.6615 26.2624 69.138 25.4239 68.7987 24.5063C68.4594 23.5886 68.3116 22.6113 68.3643 21.6343C68.468 19.6071 69.3422 17.6961 70.8082 16.292C72.2741 14.888 74.2211 14.097 76.2509 14.0809C77.23 14.0717 78.2005 14.2635 79.1026 14.6442C80.0046 15.025 80.819 15.5867 81.4954 16.2946C82.1718 17.0025 82.6959 17.8416 83.0352 18.76C83.3745 19.6784 83.5219 20.6567 83.4682 21.6343Z" fill="white"/>
<path d="M84.1788 15.6611C84.1595 16.0901 84.007 16.5023 83.7424 16.8405C83.5467 17.0961 83.2951 17.3036 83.0069 17.4471C82.7187 17.5907 82.4016 17.6666 82.0796 17.6689C81.7677 17.6708 81.46 17.5963 81.1835 17.4519C80.907 17.3075 80.6701 17.0975 80.4935 16.8405C80.2595 16.493 80.1437 16.0795 80.1633 15.6611C80.1918 15.1229 80.4245 14.6158 80.814 14.2433C81.2035 13.8708 81.7205 13.6608 82.2595 13.6563C82.5195 13.654 82.7772 13.7048 83.0168 13.8059C83.2564 13.9069 83.4728 14.0559 83.6526 14.2437C83.8324 14.4316 83.9719 14.6542 84.0624 14.898C84.1529 15.1418 84.1925 15.4015 84.1788 15.6611Z" fill="#4CAF4F"/>
<path d="M63.4673 42.3104C63.4532 42.548 63.3495 42.7714 63.1771 42.9355C63.0048 43.0996 62.7766 43.1923 62.5386 43.1949C62.4237 43.1963 62.3097 43.174 62.2038 43.1296C62.0978 43.0852 62.002 43.0195 61.9225 42.9366C61.8429 42.8537 61.7811 42.7554 61.7411 42.6476C61.701 42.5399 61.6835 42.4252 61.6895 42.3104C61.7023 42.0723 61.8056 41.8482 61.9782 41.6837C62.1509 41.5193 62.3798 41.4271 62.6182 41.4259C62.733 41.425 62.8468 41.4475 62.9526 41.4921C63.0583 41.5367 63.1539 41.6024 63.2334 41.6852C63.3129 41.768 63.3747 41.8661 63.4149 41.9737C63.4551 42.0812 63.4729 42.1958 63.4673 42.3104Z" fill="#263238"/>
<path d="M67.4415 42.3104C67.4281 42.5483 67.3246 42.772 67.1521 42.9363C66.9796 43.1006 66.751 43.1931 66.5128 43.1949C66.3982 43.1959 66.2845 43.1734 66.1789 43.1288C66.0733 43.0842 65.9779 43.0184 65.8986 42.9355C65.8194 42.8527 65.7579 42.7545 65.718 42.647C65.6781 42.5395 65.6607 42.4249 65.6667 42.3104C65.6794 42.0729 65.7823 41.8491 65.9543 41.6848C66.1263 41.5204 66.3546 41.4279 66.5924 41.426C66.7074 41.4246 66.8213 41.4468 66.9273 41.4912C67.0333 41.5357 67.129 41.6014 67.2086 41.6843C67.2882 41.7672 67.3499 41.8655 67.39 41.9732C67.4301 42.0809 67.4476 42.1957 67.4415 42.3104Z" fill="#263238"/>
<path d="M71.4188 42.3104C71.4054 42.5483 71.3019 42.772 71.1294 42.9363C70.9569 43.1006 70.7283 43.1931 70.4901 43.1949C70.3753 43.1959 70.2616 43.1734 70.1558 43.1288C70.05 43.0842 69.9544 43.0185 69.8749 42.9357C69.7954 42.8529 69.7337 42.7547 69.6935 42.6472C69.6533 42.5397 69.6354 42.4251 69.641 42.3104C69.6545 42.0726 69.758 41.8488 69.9305 41.6846C70.103 41.5203 70.3315 41.4278 70.5697 41.426C70.6846 41.4246 70.7986 41.4468 70.9046 41.4912C71.0106 41.5357 71.1063 41.6014 71.1859 41.6843C71.2655 41.7672 71.3272 41.8655 71.3673 41.9732C71.4073 42.0809 71.4249 42.1957 71.4188 42.3104Z" fill="#263238"/>
<path d="M62.798 57.2699C62.7838 57.5075 62.6801 57.7308 62.5078 57.895C62.3354 58.0591 62.1073 58.1518 61.8693 58.1544C61.7545 58.1553 61.6407 58.1328 61.5349 58.0882C61.4292 58.0436 61.3336 57.9779 61.2541 57.8951C61.1746 57.8123 61.1128 57.7142 61.0726 57.6066C61.0324 57.4991 61.0146 57.3845 61.0202 57.2699C61.0337 57.0321 61.1371 56.8083 61.3096 56.644C61.4821 56.4797 61.7107 56.3873 61.9489 56.3854C62.0637 56.3845 62.1774 56.407 62.2832 56.4515C62.389 56.4961 62.4846 56.5618 62.5641 56.6446C62.6436 56.7274 62.7053 56.8256 62.7455 56.9331C62.7858 57.0406 62.8036 57.1552 62.798 57.2699Z" fill="#263238"/>
<path d="M66.7724 57.2699C66.7589 57.5072 66.6558 57.7306 66.484 57.8948C66.3121 58.059 66.0843 58.1518 65.8466 58.1544C65.7317 58.1557 65.6177 58.1335 65.5117 58.0891C65.4058 58.0447 65.31 57.979 65.2304 57.8961C65.1509 57.8132 65.0891 57.7148 65.0491 57.6071C65.009 57.4994 64.9914 57.3846 64.9975 57.2699C65.011 57.0321 65.1145 56.8083 65.287 56.644C65.4595 56.4797 65.688 56.3873 65.9262 56.3854C66.0409 56.3844 66.1545 56.407 66.2601 56.4516C66.3658 56.4962 66.4612 56.5619 66.5404 56.6448C66.6197 56.7276 66.6812 56.8258 66.721 56.9333C66.7609 57.0409 66.7784 57.1554 66.7724 57.2699Z" fill="#263238"/>
<path d="M70.7584 57.2699C70.7449 57.5077 70.6414 57.7315 70.4689 57.8958C70.2965 58.0601 70.0679 58.1525 69.8297 58.1544C69.715 58.1549 69.6015 58.1321 69.4959 58.0874C69.3903 58.0427 69.2949 57.977 69.2155 57.8942C69.1361 57.8115 69.0743 57.7135 69.0339 57.6062C68.9936 57.4989 68.9754 57.3845 68.9806 57.2699C68.9948 57.0323 69.0985 56.809 69.2708 56.6448C69.4432 56.4807 69.6713 56.388 69.9093 56.3854C70.0242 56.3841 70.1382 56.4063 70.2442 56.4507C70.3501 56.4951 70.4459 56.5608 70.5255 56.6437C70.6051 56.7266 70.6668 56.825 70.7069 56.9327C70.7469 57.0404 70.7645 57.1552 70.7584 57.2699Z" fill="#263238"/>
<path d="M74.7267 57.2699C74.7125 57.5075 74.6088 57.7308 74.4365 57.895C74.2641 58.0591 74.036 58.1518 73.798 58.1544C73.6833 58.1549 73.5697 58.1321 73.4641 58.0874C73.3586 58.0426 73.2632 57.9769 73.1837 57.8942C73.1043 57.8115 73.0426 57.7135 73.0022 57.6062C72.9618 57.4988 72.9437 57.3844 72.9489 57.2699C72.963 57.0323 73.0667 56.8089 73.2391 56.6448C73.4114 56.4807 73.6396 56.388 73.8776 56.3854C73.9924 56.3845 74.1061 56.407 74.2119 56.4515C74.3177 56.4961 74.4133 56.5618 74.4928 56.6446C74.5723 56.7274 74.634 56.8256 74.6742 56.9331C74.7144 57.0406 74.7323 57.1552 74.7267 57.2699Z" fill="#263238"/>
<path d="M78.7187 57.2699C78.7045 57.5075 78.6008 57.7308 78.4285 57.895C78.2561 58.0591 78.028 58.1518 77.79 58.1544C77.6751 58.1557 77.5611 58.1335 77.4551 58.0891C77.3491 58.0447 77.2534 57.979 77.1738 57.8961C77.0942 57.8132 77.0325 57.7148 76.9924 57.6071C76.9524 57.4994 76.9348 57.3846 76.9409 57.2699C76.9543 57.0321 77.0578 56.8083 77.2303 56.644C77.4028 56.4797 77.6314 56.3873 77.8696 56.3854C77.9844 56.3845 78.0981 56.407 78.2039 56.4515C78.3097 56.4961 78.4053 56.5618 78.4848 56.6446C78.5642 56.7274 78.626 56.8256 78.6662 56.9331C78.7064 57.0406 78.7243 57.1552 78.7187 57.2699Z" fill="#263238"/>
<path d="M78.1153 21.2409C79.3493 20.0341 79.4148 18.0999 78.2616 16.9206C77.1083 15.7413 75.1731 15.7635 73.9391 16.9703C72.7051 18.177 72.6396 20.1113 73.7928 21.2906C74.9461 22.4699 76.8813 22.4476 78.1153 21.2409Z" fill="#4CAF4F"/>
<path d="M81.8261 26.0714C81.0915 27.0337 80.1462 27.815 79.0628 28.3552C77.9793 28.8954 76.7864 29.1802 75.5758 29.1877C74.4018 29.1976 73.2434 28.9186 72.2028 28.3751C71.1621 27.8317 70.2712 27.0405 69.6085 26.0714C71.0414 24.6444 73.3086 23.7128 75.8205 23.7128C78.3324 23.7128 80.52 24.6444 81.8261 26.0714Z" fill="#4CAF4F"/>
<path opacity="0.1" d="M78.1153 21.2409C79.3493 20.0341 79.4148 18.0999 78.2616 16.9206C77.1083 15.7413 75.1731 15.7635 73.9391 16.9703C72.7051 18.177 72.6396 20.1113 73.7928 21.2906C74.9461 22.4699 76.8813 22.4476 78.1153 21.2409Z" fill="white"/>
<path opacity="0.1" d="M81.8261 26.0714C81.0915 27.0337 80.1462 27.815 79.0628 28.3552C77.9793 28.8954 76.7864 29.1802 75.5758 29.1877C74.4018 29.1976 73.2434 28.9186 72.2028 28.3751C71.1621 27.8317 70.2712 27.0405 69.6085 26.0714C71.0414 24.6444 73.3086 23.7128 75.8205 23.7128C78.3324 23.7128 80.52 24.6444 81.8261 26.0714Z" fill="white"/>
<path d="M38.4483 46.4173C38.1682 47.0305 37.8734 47.7057 37.6169 48.3602C37.3604 49.0147 37.098 49.6899 36.871 50.3621C36.4075 51.6868 36.0545 53.0477 35.8155 54.4307L35.7507 54.8641C35.7445 54.9384 35.7515 55.0133 35.7713 55.0852C35.8409 55.3295 35.9505 55.5607 36.0956 55.7692C36.4742 56.3089 36.9134 56.8035 37.4046 57.2433C37.9225 57.725 38.4658 58.1787 39.0321 58.6025C39.5982 59.0388 40.1937 59.4634 40.7804 59.8643L40.2291 60.8992C38.8281 60.2888 37.4984 59.5265 36.2637 58.6261C35.6049 58.1457 35.0105 57.5829 34.4947 56.9514C34.189 56.5756 33.9506 56.1497 33.7901 55.6925C33.6967 55.407 33.649 55.1085 33.6486 54.8081C33.6486 54.7373 33.6486 54.6341 33.6486 54.584V54.4395L33.678 54.1447C33.8471 52.6087 34.17 51.0935 34.6421 49.6221C34.8721 48.8968 35.1168 48.1745 35.3969 47.4698C35.677 46.7652 35.9659 46.0753 36.3226 45.3589L38.4483 46.4173Z" fill="#E58A7B"/>
<path d="M40.3647 59.6816L42.4491 58.6261L41.9095 60.9139C41.9095 60.9139 40.4796 61.3149 39.8163 60.6191L40.3647 59.6816Z" fill="#E58A7B"/>
<path d="M44.3566 59.0005L43.8023 60.8933L41.9095 60.9139L42.4491 58.6261L44.3566 59.0005Z" fill="#E58A7B"/>
<path d="M47.299 35.379C47.4105 35.7876 47.5657 36.183 47.7619 36.5583C47.7045 36.6233 47.6307 36.6716 47.5482 36.6981C47.4657 36.7246 47.3775 36.7282 47.2931 36.7087L47.299 35.379Z" fill="#DF5753"/>
<path d="M47.2371 35.3967C47.3592 35.3967 47.4582 35.2449 47.4582 35.0577C47.4582 34.8704 47.3592 34.7186 47.2371 34.7186C47.115 34.7186 47.016 34.8704 47.016 35.0577C47.016 35.2449 47.115 35.3967 47.2371 35.3967Z" fill="#263238"/>
<path d="M47.1722 34.7304L47.6204 34.6036C47.6204 34.6036 47.4022 34.9515 47.1722 34.7304Z" fill="#263238"/>
<path d="M41.541 37.5431C41.8093 38.914 42.0776 41.4289 41.1165 42.3458C41.1165 42.3458 41.4938 43.7374 44.0441 43.7374C46.8479 43.7374 45.3826 42.3458 45.3826 42.3458C43.8524 41.9802 43.8908 40.8451 44.1591 39.7779L41.541 37.5431Z" fill="#E58A7B"/>
<path d="M40.7951 34.418C40.9367 36.7088 40.9484 37.6817 42.1042 38.8581C43.8466 40.627 46.6297 39.9548 47.1752 37.6788C47.6675 35.615 47.355 32.2186 45.1114 31.3076C44.6189 31.1047 44.0828 31.0308 43.5538 31.0929C43.0248 31.155 42.5204 31.351 42.0882 31.6624C41.6561 31.9738 41.3106 32.3903 41.0843 32.8725C40.858 33.3547 40.7585 33.8866 40.7951 34.418Z" fill="#E58A7B"/>
<path d="M41.0221 31.8412C39.8723 32.2598 38.3392 31.9473 38.9406 35.4941C39.5775 39.2501 38.5986 40.4855 38.5986 40.4855C38.5986 40.4855 42.9591 41.4142 47.411 40.4294C47.411 40.4294 46.0518 38.0531 46.4322 36.3019C46.9186 34.0907 46.5354 33.274 46.5354 33.274C46.5354 33.274 42.6378 31.2515 41.0221 31.8412Z" fill="#263238"/>
<path d="M45.8867 35.612C45.8879 36.0475 46.0126 36.4739 46.2464 36.8414C46.5589 37.319 46.9275 37.1362 47.0188 36.6291C47.1014 36.1839 47.0395 35.3967 46.6415 35.0901C46.2435 34.7835 45.8926 35.0842 45.8867 35.612Z" fill="#E58A7B"/>
<path d="M40.0226 32.2274C39.6924 31.2987 41.2668 29.8688 44.5983 30.4585C47.9299 31.0481 48.0743 33.8224 48.0743 33.8224L47.4021 33.0205L47.4316 33.8637L44.0087 34.5212L40.0226 32.2274Z" fill="#263238"/>
<path d="M40.3057 42.502C40.286 42.3674 40.3197 42.2304 40.3995 42.1203C40.4794 42.0102 40.5991 41.9355 40.7332 41.9124C41.7709 41.7414 44.1295 41.3935 45.3147 41.5586C46.1992 41.6824 46.4292 42.1954 46.4675 42.617C46.4735 42.6908 46.4636 42.7651 46.4386 42.8348C46.4135 42.9045 46.3738 42.968 46.3221 43.021C46.2704 43.0741 46.208 43.1155 46.139 43.1424C46.07 43.1694 45.996 43.1812 45.9221 43.1772L40.798 42.9472C40.6772 42.9411 40.5622 42.8935 40.4725 42.8124C40.3828 42.7312 40.3238 42.6216 40.3057 42.502Z" fill="#4CAF4F"/>
<path opacity="0.6" d="M40.3057 42.502C40.286 42.3674 40.3197 42.2304 40.3995 42.1203C40.4794 42.0102 40.5991 41.9355 40.7332 41.9124C41.7709 41.7414 44.1295 41.3935 45.3147 41.5586C46.1992 41.6824 46.4292 42.1954 46.4675 42.617C46.4735 42.6908 46.4636 42.7651 46.4386 42.8348C46.4135 42.9045 46.3738 42.968 46.3221 43.021C46.2704 43.0741 46.208 43.1155 46.139 43.1424C46.07 43.1694 45.996 43.1812 45.9221 43.1772L40.798 42.9472C40.6772 42.9411 40.5622 42.8935 40.4725 42.8124C40.3828 42.7312 40.3238 42.6216 40.3057 42.502Z" fill="black"/>
<path d="M43.2687 94.0082L45.1703 95.3291L48.3515 91.0157L46.4499 89.6979L43.2687 94.0082Z" fill="#E58A7B"/>
<path d="M38.8345 93.9227L40.8422 95.0666L43.6578 90.5056L41.6501 89.3617L38.8345 93.9227Z" fill="#E58A7B"/>
<path d="M48.3486 91.0157L46.7094 93.2387L44.8077 91.9209L46.447 89.6979L48.3486 91.0157Z" fill="#CF6F64"/>
<path d="M41.6472 89.3617L43.6579 90.5086L42.2074 92.8583L40.1967 91.7115L41.6472 89.3617Z" fill="#CF6F64"/>
<path d="M44.8725 56.9014C44.8725 56.9014 52.2962 66.2562 50.9017 75.2042C49.7784 82.4304 43.2627 92.2156 43.2627 92.2156L40.1995 90.6943C42.3587 86.3678 44.2012 81.8905 45.7128 77.2974C46.1789 75.8715 46.3149 74.3582 46.1106 72.872C45.9063 71.3857 45.367 69.9653 44.5334 68.718C40.7715 63.2254 34.7452 66.495 38.7991 56.9014H44.8725Z" fill="#4CAF4F"/>
<path opacity="0.6" d="M44.8725 56.9014C44.8725 56.9014 52.2962 66.2562 50.9017 75.2042C49.7784 82.4304 43.2627 92.2156 43.2627 92.2156L40.1995 90.6943C42.3587 86.3678 44.2012 81.8905 45.7128 77.2974C46.1789 75.8715 46.3149 74.3582 46.1106 72.872C45.9063 71.3857 45.367 69.9653 44.5334 68.718C40.7715 63.2254 34.7452 66.495 38.7991 56.9014H44.8725Z" fill="black"/>
<path opacity="0.4" d="M48.5136 62.91L47.4346 61.8368C47.4346 61.9223 49.5249 74.8268 50.1116 78.4532C50.4578 77.3938 50.7229 76.3097 50.9047 75.2101C51.5946 70.8201 50.1529 66.3358 48.5136 62.91Z" fill="black"/>
<path d="M48.1864 56.9014C48.1864 56.9014 57.1255 68.659 57.3791 75.7083C57.5884 81.6049 47.6498 93.0294 47.6498 93.0294L44.7605 91.1602C44.7605 91.1602 50.5774 83.0466 52.0427 76.4189C51.4767 69.8501 39.5067 56.9014 39.5067 56.9014H48.1864Z" fill="#4CAF4F"/>
<path opacity="0.6" d="M48.1864 56.9014C48.1864 56.9014 57.1255 68.659 57.3791 75.7083C57.5884 81.6049 47.6498 93.0294 47.6498 93.0294L44.7605 91.1602C44.7605 91.1602 50.5774 83.0466 52.0427 76.4189C51.4767 69.8501 39.5067 56.9014 39.5067 56.9014H48.1864Z" fill="black"/>
<path d="M37.1275 42.8706C36.1723 43.0977 35.2554 46.5707 35.2554 46.5707L38.9908 49.0649C38.9908 49.0649 40.235 46.3172 39.7986 45.1143C39.3476 43.8613 38.3275 42.5847 37.1275 42.8706Z" fill="#4CAF4F"/>
<path opacity="0.2" d="M37.8587 45.1084L37.5992 48.1363L38.9879 49.0679C39.3713 48.2047 39.6552 47.3006 39.834 46.3732L37.8587 45.1084Z" fill="black"/>
<path d="M49.292 42.9384C49.292 42.9384 50.3946 43.3246 48.1864 56.8984H38.7932C38.9524 53.0657 38.9554 50.7071 37.1274 42.8706C38.4427 42.5995 39.7758 42.4241 41.1164 42.3458C42.5367 42.244 43.9623 42.244 45.3826 42.3458C47.2164 42.5138 49.292 42.9384 49.292 42.9384Z" fill="#4CAF4F"/>
<path d="M50.2472 45.1083C50.4595 45.6979 50.6836 46.3318 50.9194 46.9421C51.1553 47.5524 51.3794 48.1804 51.6182 48.7995L52.3405 50.651L52.5233 51.1139L52.6176 51.3439L52.6619 51.4588C52.6619 51.4795 52.6619 51.4795 52.6619 51.4765C52.608 51.4006 52.5374 51.338 52.4555 51.2937C52.3388 51.2251 52.2074 51.1857 52.0722 51.1788C51.9599 51.1753 51.8482 51.1964 51.7449 51.2407C51.6093 51.3026 51.6093 51.3291 51.6123 51.3262C51.6368 51.3065 51.6586 51.2837 51.6771 51.2584C51.8403 51.0441 51.9816 50.814 52.0987 50.5714C52.2373 50.3002 52.37 50.0113 52.5027 49.7194C52.7621 49.1297 53.0009 48.5194 53.2397 47.9032C53.4785 47.2871 53.7055 46.665 53.9267 46.037L54.5989 44.156L55.7339 44.4508C55.5099 45.7952 55.2209 47.1043 54.8731 48.4369C54.705 49.1002 54.5075 49.7577 54.2834 50.4211C54.1714 50.7542 54.0475 51.0844 53.906 51.4235C53.7585 51.7914 53.5769 52.1448 53.3635 52.4789C53.2851 52.5914 53.1984 52.6978 53.1041 52.7974C52.9535 52.96 52.7708 53.0895 52.5675 53.1777C52.3871 53.2551 52.1917 53.2914 51.9956 53.2838C51.7758 53.2756 51.5617 53.2117 51.3735 53.0981C51.1514 52.9595 50.967 52.768 50.8369 52.5409C50.7927 52.4642 50.7543 52.3875 50.7278 52.3315L50.6718 52.2195L50.5597 51.9895L50.3357 51.5326C50.0409 50.9193 49.746 50.3002 49.4895 49.6781C49.233 49.056 48.9618 48.4251 48.7082 47.7912C48.4547 47.1573 48.2277 46.5235 48.0125 45.8395L50.2472 45.1083Z" fill="#E58A7B"/>
<path d="M49.292 42.9384C50.4212 43.2067 51.6919 46.5442 51.6919 46.5442L48.3338 49.401C48.3338 49.401 46.161 45.7629 46.6003 44.5629C47.0572 43.3129 47.8179 42.5876 49.292 42.9384Z" fill="#4CAF4F"/>
<path d="M55.1325 43.1006L56.3118 42.1158L57.1314 43.3924L56.527 44.4568C56.527 44.4568 55.5659 45.3412 54.7168 44.8902C54.582 44.5872 54.5497 44.2486 54.6247 43.9257C54.6998 43.6027 54.878 43.3131 55.1325 43.1006Z" fill="#E58A7B"/>
<path d="M58.4405 42.1188L58.352 42.4402L56.4858 42.7527L56.303 42.1158L58.4405 42.1188Z" fill="#E58A7B"/>
<path d="M47.8797 93.1797L44.5128 91.0039L45.1172 89.9543L48.8998 92.2805L47.8797 93.1797Z" fill="#4CAF4F"/>
<path d="M42.1601 94.9133C41.8647 94.8772 41.5809 94.7766 41.3287 94.6185C41.3183 94.6149 41.3093 94.6081 41.3029 94.5991C41.2965 94.5902 41.2931 94.5794 41.2931 94.5684C41.2931 94.5574 41.2965 94.5466 41.3029 94.5376C41.3093 94.5287 41.3183 94.5219 41.3287 94.5183C41.4201 94.4888 42.2132 94.2441 42.4432 94.4328C42.469 94.4543 42.4887 94.4823 42.5001 94.5139C42.5115 94.5455 42.5142 94.5796 42.508 94.6126C42.5039 94.6657 42.4863 94.7168 42.4569 94.7612C42.4275 94.8056 42.3873 94.8417 42.34 94.8662C42.2848 94.8963 42.223 94.9125 42.1601 94.9133ZM41.4968 94.589C41.8653 94.7777 42.1601 94.8455 42.3016 94.7748C42.3325 94.7577 42.3584 94.733 42.377 94.7031C42.3955 94.6732 42.4062 94.639 42.4078 94.6038C42.4078 94.5566 42.4078 94.536 42.3812 94.5242C42.2574 94.4239 41.8152 94.5006 41.4909 94.589H41.4968Z" fill="#263238"/>
<path d="M41.3494 94.6391C41.3338 94.6388 41.319 94.6325 41.3081 94.6214C41.3037 94.6132 41.3014 94.6041 41.3014 94.5948C41.3014 94.5856 41.3037 94.5765 41.3081 94.5683C41.3081 94.5418 41.4997 93.902 41.8004 93.7575C41.8388 93.74 41.8806 93.731 41.9228 93.731C41.965 93.731 42.0067 93.74 42.0451 93.7575C42.0865 93.7706 42.1224 93.7972 42.147 93.833C42.1715 93.8688 42.1834 93.9117 42.1808 93.9551C42.1601 94.2204 41.6206 94.586 41.3729 94.6479L41.3494 94.6391ZM41.9213 93.8342C41.8926 93.8351 41.8645 93.8421 41.8388 93.8548C41.656 93.9433 41.5056 94.2882 41.4319 94.4976C41.6914 94.3885 42.0481 94.0995 42.0599 93.9374C42.0599 93.9108 42.0599 93.8784 41.9921 93.8489C41.97 93.8371 41.9461 93.8291 41.9213 93.8253V93.8342Z" fill="#263238"/>
<path d="M46.3673 96.187C46.0341 96.187 45.5713 95.7595 45.3177 95.4971C45.3112 95.4881 45.3077 95.4773 45.3077 95.4662C45.3077 95.4551 45.3112 95.4442 45.3177 95.4352C45.3235 95.4257 45.3318 95.4179 45.3417 95.4128C45.3515 95.4076 45.3626 95.4051 45.3737 95.4057C45.4916 95.4057 46.5147 95.559 46.6592 95.848C46.6745 95.8739 46.6825 95.9034 46.6825 95.9335C46.6825 95.9635 46.6745 95.9931 46.6592 96.019C46.6375 96.064 46.6048 96.1027 46.564 96.1316C46.5233 96.1605 46.4759 96.1785 46.4262 96.1841L46.3673 96.187ZM45.5123 95.5384C45.8838 95.8981 46.211 96.0986 46.3968 96.075C46.4293 96.0707 46.4603 96.0586 46.487 96.0395C46.5137 96.0205 46.5354 95.9952 46.5501 95.9659C46.5567 95.9558 46.5602 95.944 46.5602 95.932C46.5602 95.9199 46.5567 95.9082 46.5501 95.8981C46.4734 95.7389 45.928 95.6033 45.5123 95.5384Z" fill="#263238"/>
<path d="M45.5448 95.5236C45.4786 95.5254 45.4125 95.5205 45.3473 95.5088C45.3382 95.5075 45.3296 95.5037 45.3224 95.4981C45.3151 95.4924 45.3095 95.4849 45.306 95.4764C45.3016 95.4677 45.2993 95.4581 45.2993 95.4484C45.2993 95.4386 45.3016 95.429 45.306 95.4204C45.3237 95.3997 45.7217 94.9192 46.0991 94.8867C46.2059 94.8784 46.3118 94.9123 46.3939 94.9811C46.5089 95.0813 46.503 95.1698 46.4735 95.2258C46.3998 95.4263 45.8898 95.5236 45.5448 95.5236ZM45.4682 95.4145C45.7984 95.4322 46.3261 95.3231 46.3939 95.1786C46.3939 95.1786 46.4175 95.1314 46.3409 95.0666C46.3104 95.0401 46.2747 95.0201 46.2362 95.0079C46.1976 94.9957 46.157 94.9916 46.1168 94.9958C45.8626 95.0668 45.6362 95.2139 45.4682 95.4174V95.4145Z" fill="#263238"/>
<path d="M41.429 94.3207L38.9289 93.6131C38.8858 93.6 38.8394 93.6033 38.7986 93.6224C38.7578 93.6414 38.7254 93.6748 38.7077 93.7163L37.8645 95.612C37.8447 95.6605 37.8354 95.7127 37.8373 95.7651C37.8391 95.8176 37.852 95.869 37.8751 95.916C37.8982 95.9631 37.931 96.0047 37.9714 96.0382C38.0117 96.0717 38.0587 96.0962 38.1092 96.1103C38.9937 96.3402 39.4183 96.4051 40.518 96.7205C41.1961 96.9092 42.1631 97.2601 43.0977 97.5254C44.0323 97.7908 44.3448 96.8798 43.9822 96.6852C42.3429 95.8184 42.2132 95.211 41.7651 94.5624C41.6848 94.445 41.5659 94.3594 41.429 94.3207Z" fill="#4CAF4F"/>
<path d="M45.3855 95.1521L43.251 93.678C43.2148 93.6516 43.1702 93.6395 43.1256 93.6438C43.081 93.6482 43.0396 93.6687 43.0092 93.7016L41.594 95.2229C41.5595 95.2622 41.5338 95.3084 41.5186 95.3584C41.5033 95.4085 41.4989 95.4612 41.5056 95.513C41.5123 95.5649 41.5299 95.6148 41.5574 95.6593C41.5848 95.7038 41.6215 95.742 41.6648 95.7712C42.4166 96.2754 42.8058 96.4788 43.7463 97.1304C44.3359 97.5314 45.4769 98.4217 46.2729 98.976C47.0689 99.5303 47.6615 98.7696 47.3785 98.4689C46.1108 97.1157 45.8336 96.2666 45.6243 95.4971C45.588 95.3575 45.5034 95.2353 45.3855 95.1521Z" fill="#4CAF4F"/>
<path d="M43.655 92.4102L39.8075 90.4968L40.2055 89.4531L44.3154 91.4697L43.655 92.4102Z" fill="#4CAF4F"/>
<path d="M38.6518 56.3471L38.3275 57.1962C38.295 57.2611 38.3717 57.3289 38.4808 57.3289H48.2336C48.3191 57.3289 48.3899 57.2876 48.3958 57.2346L48.4783 56.3914C48.4783 56.3353 48.4105 56.2852 48.3191 56.2852H38.8051C38.7764 56.2825 38.7476 56.2867 38.7209 56.2975C38.6942 56.3083 38.6705 56.3253 38.6518 56.3471Z" fill="#4CAF4F"/>
<path opacity="0.4" d="M38.6518 56.3471L38.3275 57.1962C38.295 57.2611 38.3717 57.3289 38.4808 57.3289H48.2336C48.3191 57.3289 48.3899 57.2876 48.3958 57.2346L48.4783 56.3914C48.4783 56.3353 48.4105 56.2852 48.3191 56.2852H38.8051C38.7764 56.2825 38.7476 56.2867 38.7209 56.2975C38.6942 56.3083 38.6705 56.3253 38.6518 56.3471Z" fill="white"/>
<path d="M40.1877 57.4114H39.9312C39.8811 57.4114 39.8428 57.3849 39.8457 57.3525L39.9666 56.2587C39.9666 56.2292 40.0138 56.2026 40.0639 56.2026H40.3204C40.3705 56.2026 40.4089 56.2292 40.4059 56.2587L40.285 57.3525C40.2821 57.3849 40.2379 57.4114 40.1877 57.4114Z" fill="#4CAF4F"/>
<path d="M46.2022 57.4114H45.9487C45.8986 57.4114 45.8602 57.3849 45.8632 57.3525L45.9811 56.2587C45.9811 56.2292 46.0312 56.2026 46.0814 56.2026H46.3349C46.385 56.2026 46.4263 56.2292 46.4204 56.2587L46.3025 57.3525C46.2877 57.3849 46.2553 57.4114 46.2022 57.4114Z" fill="#4CAF4F"/>
<path d="M39.9637 107.34C44.3259 107.34 47.8621 107.084 47.8621 106.768C47.8621 106.452 44.3259 106.196 39.9637 106.196C35.6015 106.196 32.0653 106.452 32.0653 106.768C32.0653 107.084 35.6015 107.34 39.9637 107.34Z" fill="#F5F5F5"/>
<path d="M44.7753 105.96C43.3778 105.554 41.827 105.032 40.8895 104.486C40.8629 104.469 40.8335 104.46 40.8069 104.445V98.1181H43.6343C43.8489 98.1054 44.0506 98.0112 44.1981 97.8547C44.3455 97.6982 44.4277 97.4914 44.4277 97.2763C44.4277 97.0613 44.3455 96.8545 44.1981 96.698C44.0506 96.5415 43.8489 96.4473 43.6343 96.4346H40.8217V67.5947H39.1235V96.4346H36.3138C36.1991 96.4278 36.0841 96.4446 35.9761 96.4838C35.8681 96.523 35.7692 96.5839 35.6856 96.6627C35.602 96.7416 35.5353 96.8367 35.4898 96.9422C35.4442 97.0477 35.4207 97.1614 35.4207 97.2763C35.4207 97.3913 35.4442 97.505 35.4898 97.6105C35.5353 97.716 35.602 97.8111 35.6856 97.89C35.7692 97.9688 35.8681 98.0297 35.9761 98.0689C36.0841 98.1081 36.1991 98.1249 36.3138 98.1181H39.1235V104.436C39.0969 104.436 39.0704 104.46 39.0439 104.477C38.0916 105.032 36.5526 105.554 35.1551 105.952C35.0607 105.98 34.9797 106.042 34.9266 106.125C34.8736 106.208 34.852 106.307 34.8659 106.405C34.8798 106.503 34.9282 106.592 35.0024 106.657C35.0765 106.722 35.1715 106.758 35.2701 106.759H44.6603C44.7545 106.753 44.8437 106.714 44.913 106.65C44.9822 106.586 45.0273 106.5 45.0408 106.406C45.0542 106.313 45.0352 106.218 44.9869 106.136C44.9386 106.055 44.8639 105.993 44.7753 105.96Z" fill="#E0E0E0"/>
<path d="M45.2086 64.6582H34.7246C33.8811 64.6582 33.1974 65.342 33.1974 66.1854V69.3017C33.1974 70.1452 33.8811 70.8289 34.7246 70.8289H45.2086C46.0521 70.8289 46.7358 70.1452 46.7358 69.3017V66.1854C46.7358 65.342 46.0521 64.6582 45.2086 64.6582Z" fill="#4CAF4F"/>
<path d="M34.6273 70.8319V71.3685C34.6273 71.8107 35.1079 72.1704 35.6975 72.1704H44.2475C44.8371 72.1704 45.3177 71.8107 45.3177 71.3685V70.8319H34.6273Z" fill="#4CAF4F"/>
<path opacity="0.3" d="M34.6273 70.8319V71.3685C34.6273 71.8107 35.1079 72.1704 35.6975 72.1704H44.2475C44.8371 72.1704 45.3177 71.8107 45.3177 71.3685V70.8319H34.6273Z" fill="white"/>
</svg>
